<svg height="512" viewBox="0 0 496.999 496.999" width="512" xmlns="http://www.w3.org/2000/svg"><path d="m484.14 181.217-153.53-22.31-68.66-139.12c-2.75-5.57-8.1-8.36-13.45-8.36l.02 400.2 137.3 72.19c11.01 5.78 23.86-3.56 21.76-15.81l-26.22-152.92 111.09-108.29c8.91-8.68 3.99-23.79-8.31-25.58z" fill="#ffb820"/><path d="M349.12 304.617s23.68 138.03 23.76 138.49c-.08-.01-122.45-31-124.36-31.48-.02-.01-137.34 72.19-137.34 72.19-11.01 5.78-23.86-3.56-21.76-15.81l26.22-152.92L4.55 206.797c-8.91-8.68-3.99-23.79 8.31-25.58l153.53-22.31 68.66-139.12c2.75-5.57 8.1-8.36 13.45-8.36l62.19 174.9 139.06 20.21z" fill="#ffd06a"/></svg>