<svg xmlns="http://www.w3.org/2000/svg" viewBox="0 0 765.57 527.21"><defs><style>.cls-1{fill:#60a5a5;}</style></defs><g id="Layer_2" data-name="Layer 2"><path class="cls-1" d="M327.56,302.06a9.48,9.48,0,0,0-2.47,2.42,9.08,9.08,0,0,0-1.64,4.89,9.3,9.3,0,0,0,0,1.29C330.07,307.49,330.89,306.7,327.56,302.06ZM290.05,309q-3.37-5.06-10.11-5c-2.81,0-7.33,2.37-11.55,4.06-23.23,13.28-35.13,20.66-49.89,25.53a126.69,126.69,0,0,1-13.84,3.68C151.88,348.31,75.43,315.12,66.6,217.81,56,101.29,126.73,78.08,145.23,76.93c44.45-2.79,72.65,49.23,66.43,74-13.33,53.18,35,.14,35-17,0-25.55-21.18-106.79-119.53-80.75C96.25,61.37,29.73,97.59,41.3,224.56c4.35,47.71,23,86.54,49.92,112.53,31.34,30.3,73.84,43.19,117.87,32.43A110.05,110.05,0,0,0,220.43,366a15.22,15.22,0,0,1-2.51-5.25,15,15,0,0,1-.08-7.94,14.23,14.23,0,0,1,3.84-6.54A15.95,15.95,0,0,1,237,342.49a13.08,13.08,0,0,1,6.79,4.88l-5.56,1.51a7.7,7.7,0,0,0-3.94-2.51,9.47,9.47,0,0,0-4.8.13,10.08,10.08,0,0,0-4.64,2.61,9.06,9.06,0,0,0-2.45,4.53,11.94,11.94,0,0,0,.25,5.81,12.3,12.3,0,0,0,2.4,4.78c8.27-3.25,17.43-7.43,26.38-11.91l-5.8-14.51L250.1,336l5.64,14.11c4-2.08,8-4.19,11.73-6.28l-5.09-12.74,4.45-1.78,4.85,12.14c2.17-1.24,4.26-2.47,6.24-3.67l-.25-.11a7,7,0,0,1-3.11-3.31,7.77,7.77,0,0,1-.89-4.5,8,8,0,0,1,1.82-4.19,12.82,12.82,0,0,1,4.21-3.29,11,11,0,0,1,7.16-1.28,7.85,7.85,0,0,1,5.32,3.81l-4.71,2.41a3.82,3.82,0,0,0-2.59-1.74,5.6,5.6,0,0,0-3.77.66,5.13,5.13,0,0,0-2.51,2.46,3.65,3.65,0,0,0,.22,3.29,3,3,0,0,0,1.73,1.59,5.71,5.71,0,0,0,2.47.26c.43,0,.92-.1,1.48-.2,1.34-.87,2.6-1.72,3.76-2.53,5.86-4.1,11-7.41,15.52-10.1L301,315.87l-6.86,3.76-1.87-3.43,17.86-9.78,1.88,3.42-6.81,3.73,2.77,5.06c4.38-2.48,8-4.33,11-5.78a13.53,13.53,0,0,1-.12-3.54,14.18,14.18,0,0,1,2.67-7.1,15.15,15.15,0,0,1,2.66-2.82C316.51,299.22,292.05,312,290.05,309Z"/><path class="cls-1" d="M575.87,365.59l-.13-.09c-.36.14-1,.08-.69.65a.58.58,0,0,0,.25.45c-.44.48.82.36.37.83.09,0,.18.08.27-.09C577.37,367.17,577.1,365.66,575.87,365.59Z"/><path class="cls-1" d="M599.21,375.53a1.36,1.36,0,0,0,.31-.63l-.26-.2-.14.18a1.67,1.67,0,0,0-1.47-.51c-.07.2-.15.41,0,.55A2.18,2.18,0,0,0,599.21,375.53Z"/><path class="cls-1" d="M675.36,348.37c-.74.18-.66.06-1.27.19.81-.63-1.16-.39-.77-1.18-.37.09-.71.34-.69-.23a7.71,7.71,0,0,1-1.94-.32c-.89-.13-1.2-.87-1.8-.49-.13-.56-1.19-1.1-2.08-1,.08.39,1,.83.25,1.05.19.36,1.21-.27.57-.43.25-.3.47.18.71-.06.29.26-.55.32-.74.9.74-.46.92.09,1.84-.08-.15.18-.29.13-.43.25.72-.08.62,0,1.37.47.27-.25.4.1.41.31-1.16,1.43-2.87-.22-2.49-.73-.81.27-.51-.19-1.39-.45-.25-.08-.41,0-.41-.31l-.44.54a2,2,0,0,0,.51,1.25,1.54,1.54,0,0,1,.76,2c.63.11.5,0,1,.16a1.68,1.68,0,0,0-.46.82c.43-.24.86-.53,1.25.08.19-.19.39-.52.58-.43l-.45.53a3.55,3.55,0,0,1,1.8.21l-.74.89c-.52-.18-.34-.55-.66-.79-.28,0-.32.45-.84.23-.52.12-1-.5-1.52-.29-.31.51-.34.76-.87.79-.15-.15-.28-.3,0-.56-.55,0-1.14.67-1.69.46l.15-.18a5.44,5.44,0,0,0-.09-1.22c-.85.49-1.92.74-1.34,1.88l.13.1c.14.2,0,.45.4.59.79-.79,1,.63.92,1,.43.35.09.9.77,1.18l.15-.18a17.48,17.48,0,0,1,1.92.59l-.3.36c.29-.19.54.36.83,0-.19-.36.78-1.06,1-.68-.15.21-.43.12-.3.35.2-.19.38,0,.55.13.1-.1.2-.19.28-.07.22-.34-.65-.13.05-.85.19.37.31.65.95.44.07.07.14.15,0,.28l-.3.36c.42.1,1.42-.49.74-.89-1.15.51.18-.56-1-.16.49-.41,0-.55,0-.84-.32-.07-.69.85-1,.68l.89-1.06c.26.43.56,0,.82.33a12.84,12.84,0,0,0,1.35-1.88c.35.63,1-1.14,1-.12a1.7,1.7,0,0,1,.73-.61c-.85-.22.67-1.44.53-2.21.18.1.37.19.57-.16.35-.5.67-.44,1-.12C676.76,348.34,676,348.45,675.36,348.37Zm-7.4.16c-.5-.23-.22-.68-.81-.89A.62.62,0,0,1,668,348.53Zm.79,6.44a1.89,1.89,0,0,0-1.81.06c.18-.84,0-.73-.63-1.35,1-2.42,3.08-1.43,3.78-.32A6.41,6.41,0,0,0,668.75,355Zm4.37-3.66c-1-.11-.35-.66-1.33-1.31,1.08-.5.75-.08,2,0C674.07,350.32,673.51,350.84,673.12,351.31Z"/><path class="cls-1" d="M548.9,274.12l-1.65-.78C547.25,273.76,548.54,274.37,548.9,274.12Z"/><path class="cls-1" d="M546.21,272.6c-.21-.62-1-1-1.77-1.34.17-.49-.77-.46-1.05-.74l-2-.94-.1.21,1.65.77C543.71,271.81,544.62,272,546.21,272.6Z"/><path class="cls-1" d="M539.83,269.86c.29-.31.68-.1,1-.31-.49-.24-1-.44-1.51-.65C539.11,269.4,539.94,269.4,539.83,269.86Z"/><path class="cls-1" d="M537.05,267.73l.5.2c.19.39.82,1,1.25.76l.1-.2-.17-.07c-.05-.58-1.25-.6-1.75-1L535.8,267C535.84,267.65,536.69,267.82,537.05,267.73Z"/><path class="cls-1" d="M342.81,306.61a12,12,0,0,0-3.56-4.6,9.06,9.06,0,0,0-4.79-1.89,10.11,10.11,0,0,0-5.23,1,11.66,11.66,0,0,0-1.67.94,9.48,9.48,0,0,0-2.47,2.42,9.08,9.08,0,0,0-1.64,4.89,9.3,9.3,0,0,0,0,1.29,12.47,12.47,0,0,0,1.2,4.39,12.27,12.27,0,0,0,3.56,4.62,9.3,9.3,0,0,0,4.81,1.93,10.73,10.73,0,0,0,9.37-4.36,9.24,9.24,0,0,0,1.63-4.93A12.2,12.2,0,0,0,342.81,306.61Zm0,0a12,12,0,0,0-3.56-4.6,9.06,9.06,0,0,0-4.79-1.89,10.11,10.11,0,0,0-5.23,1,11.66,11.66,0,0,0-1.67.94,9.48,9.48,0,0,0-2.47,2.42,9.08,9.08,0,0,0-1.64,4.89,9.3,9.3,0,0,0,0,1.29,12.47,12.47,0,0,0,1.2,4.39,12.27,12.27,0,0,0,3.56,4.62,9.3,9.3,0,0,0,4.81,1.93,10.73,10.73,0,0,0,9.37-4.36,9.24,9.24,0,0,0,1.63-4.93A12.2,12.2,0,0,0,342.81,306.61Zm0,0a12,12,0,0,0-3.56-4.6,9.06,9.06,0,0,0-4.79-1.89,10.11,10.11,0,0,0-5.23,1,11.66,11.66,0,0,0-1.67.94,9.48,9.48,0,0,0-2.47,2.42,9.08,9.08,0,0,0-1.64,4.89,9.3,9.3,0,0,0,0,1.29,12.47,12.47,0,0,0,1.2,4.39,12.27,12.27,0,0,0,3.56,4.62,9.3,9.3,0,0,0,4.81,1.93,10.73,10.73,0,0,0,9.37-4.36,9.24,9.24,0,0,0,1.63-4.93A12.2,12.2,0,0,0,342.81,306.61Zm73.1-22q-.41-4.77-5.81-4.31l-5.27.46.82,9.49,5.27-.45a5.88,5.88,0,0,0,4-1.58A4.54,4.54,0,0,0,415.91,284.61Zm0,0q-.41-4.77-5.81-4.31l-5.27.46.82,9.49,5.27-.45a5.88,5.88,0,0,0,4-1.58A4.54,4.54,0,0,0,415.91,284.61Zm-73.1,22a12,12,0,0,0-3.56-4.6,9.06,9.06,0,0,0-4.79-1.89,10.11,10.11,0,0,0-5.23,1,11.66,11.66,0,0,0-1.67.94,9.48,9.48,0,0,0-2.47,2.42,9.08,9.08,0,0,0-1.64,4.89,9.3,9.3,0,0,0,0,1.29,12.47,12.47,0,0,0,1.2,4.39,12.27,12.27,0,0,0,3.56,4.62,9.3,9.3,0,0,0,4.81,1.93,10.73,10.73,0,0,0,9.37-4.36,9.24,9.24,0,0,0,1.63-4.93A12.2,12.2,0,0,0,342.81,306.61Zm0,0a12,12,0,0,0-3.56-4.6,9.06,9.06,0,0,0-4.79-1.89,10.11,10.11,0,0,0-5.23,1,11.66,11.66,0,0,0-1.67.94,9.48,9.48,0,0,0-2.47,2.42,9.08,9.08,0,0,0-1.64,4.89,9.3,9.3,0,0,0,0,1.29,12.47,12.47,0,0,0,1.2,4.39,12.27,12.27,0,0,0,3.56,4.62,9.3,9.3,0,0,0,4.81,1.93,10.73,10.73,0,0,0,9.37-4.36,9.24,9.24,0,0,0,1.63-4.93A12.2,12.2,0,0,0,342.81,306.61Zm73.1-22q-.41-4.77-5.81-4.31l-5.27.46.82,9.49,5.27-.45a5.88,5.88,0,0,0,4-1.58A4.54,4.54,0,0,0,415.91,284.61ZM438,281l-4.71,13.6,9.53-.06Zm0,0-4.71,13.6,9.53-.06Zm-22.06,3.65q-.41-4.77-5.81-4.31l-5.27.46.82,9.49,5.27-.45a5.88,5.88,0,0,0,4-1.58A4.54,4.54,0,0,0,415.91,284.61Zm-73.1,22a12,12,0,0,0-3.56-4.6,9.06,9.06,0,0,0-4.79-1.89,10.11,10.11,0,0,0-5.23,1,11.66,11.66,0,0,0-1.67.94,9.48,9.48,0,0,0-2.47,2.42,9.08,9.08,0,0,0-1.64,4.89,9.3,9.3,0,0,0,0,1.29,12.47,12.47,0,0,0,1.2,4.39,12.27,12.27,0,0,0,3.56,4.62,9.3,9.3,0,0,0,4.81,1.93,10.73,10.73,0,0,0,9.37-4.36,9.24,9.24,0,0,0,1.63-4.93A12.2,12.2,0,0,0,342.81,306.61Zm0,0a12,12,0,0,0-3.56-4.6,9.06,9.06,0,0,0-4.79-1.89,10.11,10.11,0,0,0-5.23,1,11.66,11.66,0,0,0-1.67.94,9.48,9.48,0,0,0-2.47,2.42,9.08,9.08,0,0,0-1.64,4.89,9.3,9.3,0,0,0,0,1.29,12.47,12.47,0,0,0,1.2,4.39,12.27,12.27,0,0,0,3.56,4.62,9.3,9.3,0,0,0,4.81,1.93,10.73,10.73,0,0,0,9.37-4.36,9.24,9.24,0,0,0,1.63-4.93A12.2,12.2,0,0,0,342.81,306.61Zm73.1-22q-.41-4.77-5.81-4.31l-5.27.46.82,9.49,5.27-.45a5.88,5.88,0,0,0,4-1.58A4.54,4.54,0,0,0,415.91,284.61ZM438,281l-4.71,13.6,9.53-.06Zm0,0-4.71,13.6,9.53-.06Zm-22.06,3.65q-.41-4.77-5.81-4.31l-5.27.46.82,9.49,5.27-.45a5.88,5.88,0,0,0,4-1.58A4.54,4.54,0,0,0,415.91,284.61Zm-73.1,22a12,12,0,0,0-3.56-4.6,9.06,9.06,0,0,0-4.79-1.89,10.11,10.11,0,0,0-5.23,1,11.66,11.66,0,0,0-1.67.94,9.48,9.48,0,0,0-2.47,2.42,9.08,9.08,0,0,0-1.64,4.89,9.3,9.3,0,0,0,0,1.29,12.47,12.47,0,0,0,1.2,4.39,12.27,12.27,0,0,0,3.56,4.62,9.3,9.3,0,0,0,4.81,1.93,10.73,10.73,0,0,0,9.37-4.36,9.24,9.24,0,0,0,1.63-4.93A12.2,12.2,0,0,0,342.81,306.61Zm0,0a12,12,0,0,0-3.56-4.6,9.06,9.06,0,0,0-4.79-1.89,10.11,10.11,0,0,0-5.23,1,11.66,11.66,0,0,0-1.67.94,9.48,9.48,0,0,0-2.47,2.42,9.08,9.08,0,0,0-1.64,4.89,9.3,9.3,0,0,0,0,1.29,12.47,12.47,0,0,0,1.2,4.39,12.27,12.27,0,0,0,3.56,4.62,9.3,9.3,0,0,0,4.81,1.93,10.73,10.73,0,0,0,9.37-4.36,9.24,9.24,0,0,0,1.63-4.93A12.2,12.2,0,0,0,342.81,306.61Zm73.1-22q-.41-4.77-5.81-4.31l-5.27.46.82,9.49,5.27-.45a5.88,5.88,0,0,0,4-1.58A4.54,4.54,0,0,0,415.91,284.61ZM438,281l-4.71,13.6,9.53-.06Zm0,0-4.71,13.6,9.53-.06Zm-22.06,3.65q-.41-4.77-5.81-4.31l-5.27.46.82,9.49,5.27-.45a5.88,5.88,0,0,0,4-1.58A4.54,4.54,0,0,0,415.91,284.61Zm-73.1,22a12,12,0,0,0-3.56-4.6,9.06,9.06,0,0,0-4.79-1.89,10.11,10.11,0,0,0-5.23,1,11.66,11.66,0,0,0-1.67.94,9.48,9.48,0,0,0-2.47,2.42,9.08,9.08,0,0,0-1.64,4.89,9.3,9.3,0,0,0,0,1.29,12.47,12.47,0,0,0,1.2,4.39,12.27,12.27,0,0,0,3.56,4.62,9.3,9.3,0,0,0,4.81,1.93,10.73,10.73,0,0,0,9.37-4.36,9.24,9.24,0,0,0,1.63-4.93A12.2,12.2,0,0,0,342.81,306.61ZM662.22,345.3c.22.23.47,0,.69.23s.38-.08.56.14c.37-.06.77-.51,1.14-.58a1.92,1.92,0,0,0,.61-1c-.37-.19-.74-.11-1.1-.55a.28.28,0,0,1-.42,0l-.13-.11a1.11,1.11,0,0,1-1.41.09,1.64,1.64,0,0,0,.46-.82.46.46,0,0,1-.11-.66c.09.05.18.09.28-.08l-.27-.21c-.27-.32-.57.1-.84-.34s-1.11-.47-.84-.91c1-.48.63-1.61.48-2.24l.59-.71c.43-.1.86.25,1.29.09a1.11,1.11,0,0,0-1.43-.2c-.64-.07-1.57.16-1.45.94l-.29-.21c-.74.23-1.13-.83-1.55-1.15l.15-.18c-.29-.06-.57,0-.86-.06-.61-.28-1.06-.31-1-1l.44-.54c.15-.13.08-.21,0-.28l.29-.36c.17-.28,0-.48.15-.75l-.56-.42c-.62.17-1.23-.47-1.87.34-.6.15-.45.6-.58,1-1.36-.39-2.09-1.55-3.24-1.55.32.2.31.48,0,.85-.61.1-1.22-.44-1.85.07.16.15.29.3,0,.57-.19-.12-.38.09-.57-.13s-.57.41-.85.23a1.14,1.14,0,0,1-.86.23c-.44.82-.87.27-1.3.22a.29.29,0,0,1-.17.09l-.26-.2-.14-.1c-.07-.13-.26-.21-.12-.39a2.94,2.94,0,0,0,2.3-1.15c.82.18,1.12-1.23.63-1.56l-.41-.31-2.18-1.67c-.09.1-.19.19-.28.07a1,1,0,0,0-.22-.2.78.78,0,0,0,.24-.09c.11-.32-.54-.42-.3-.77a.84.84,0,0,0,1,.14c-.54-.31-.89-.22-.88-.9l-.15-.1c0-.43-.78-.64-.16-1.24-.39-.33-.77-.58-1.15,0l-.15-.11c-.28.33-.57.55-.85.53-.08.5.54.8.59,1.26a.72.72,0,0,1,.3.72c-.26-.17-.53-.43-.8-.6l-.14-.1-.42-.32a1.11,1.11,0,0,0-1.43-.2c-.64-.07-1.58.16-1.46.94l-.28-.21a.64.64,0,0,1-.41,0c0-.42-.39-.6-.82-.78a1.66,1.66,0,0,0-.32-.36l.15-.18c-.29-.06-.57,0-.86-.06l-.32-.14,0-.06a1.65,1.65,0,0,1-.69-.53.89.89,0,0,1,0-.29l.44-.54c.15-.13.08-.21,0-.28l.3-.36c.17-.28,0-.48.15-.75l-.56-.42a3.43,3.43,0,0,1-1.06-.07,4.72,4.72,0,0,0-.65-.47l-.3-.2c-.1.11-.19.21-.29.09-.14.28,0,.49-.41.84-.14.18,0,.3-.13.47l-.14-.1-1.35-.88a1.7,1.7,0,0,1,.7-.64c-.46-.39-.64-.86-1.36-1.17l-.15-.09-.15-.1c-.28-.59-1.12-1-1.8-1.46-.4-.25-.81-.68-1.18-.21a3.08,3.08,0,0,1-2-1.55l-.3-.2c-.5-.25-1.14-.47-1.75-.74l.05-.06c-.27-.23-.53-.41-.8-.3a2.38,2.38,0,0,1-1.41-1.72c-.46-.39-1-.77-1.08-1.26-.09-.12-.3-.2-.17-.38a.84.84,0,0,1-.47-.58c-.33.74-.71,0-.73-.21-.24,1.28,1.73,1,1.29,2.22-.23-.53-1.8-1.32-2.17-2.21.3-.57.7.16,1-.19-.09-.12-.06-.28.11-.48.27-.48-.65-.55-.09-1.13.27.42.35.51.91.28.13-.13.28-.09.41-.28-3.43-3.61-8.4-4.85-12.74-7.6a51.19,51.19,0,0,0-4.5-2.44c-.14-.21-.16-.47-.59-.59,0-.43-.66-.67-1.08-1-.54-1-2.39-1.54-3.44-2.36l-.16-.09L598,297l-1.19-.7a.73.73,0,0,0,.19-.2c-.91-.64-2.25-1.1-2.37-2.05l-.81-.43c-1-.77-1.83-.35-2.81-1-.08.12-.16.22-.28.11s-.27,0-.4,0c-.19-.16-.39-.32-.54-.1l-.13,0-.83-.5-5.48-3.25-1.77-.95-1.77-.95-.12.2-.16-.09-2.42-1.29c-.72-.22-1.55-1.17-2.21-.92-.7-.39-1.41-.85-2-.56-1-.77-1.83-.35-2.81-1l-5-2.65-.16-.09a4.65,4.65,0,0,0-2.91-1.51c-.75-.56-1.32-.1-2-.47l-.11.2-.17-.07-.49-.24-2.47-1.17a.15.15,0,0,0,0,.2c-.58-.31-1.13-.59-1.55-.8a3.18,3.18,0,0,0,.37.06l.12-.2c.27-.42-.54-.37-.72-.59l-2.31-1.09c-.21-.07-.45-.26-.6,0l.66.31c.18.73,1.17.92,1.7,1.06a2.27,2.27,0,0,0,.3.27,28.57,28.57,0,0,0-4.47-1.44q-5.78-2.54-11.39-4.81c-.11-.37-.11-.67-.28-.72-.61-.17-3.77-1.94-4.74-2.36-5.28-2.24-8.71-1.61-12.55-4.42-.11.15-.19.41-.36.35,0-.18.18-.41,0-.49-2,.64-5-1.82-6.33-2.76a8,8,0,0,1-2.17,0c-3.14-.42-6.71-2-10.06-2.32-.15,0-.84-.31-1-.36l-1.52-.46-.05.11c-33.72-9.34-63.82-11.34-94.56-7.7-54,6.39-94,29.87-129.35,50.58-16.18,9.48-37.3,23-57.35,33.86-12.09,6.52-23.79,12.05-33.78,15.1L91.15,337l.07.08c2.3,2.87,67,81.73,199.4,29.23l2.18-.87c1.86-.75,3.7-1.5,5.53-2.22,70.9-28.36,115.67-38.73,157.61-35.76q5.6.38,11.14,1.1c1.44.17,2.87.37,4.31.59q3.86.55,7.71,1.29a263.09,263.09,0,0,1,25.73,6.19l.24.1h.07l1.8.53a.67.67,0,0,1,.06.12,1.65,1.65,0,0,0,.92.18c3.11.94,6.24,1.93,9.43,3a1,1,0,0,0,.26.33,17.8,17.8,0,0,0,4.41,2.59c1.07.41,2-.83,3.07-.08.69.68,1,1.56,2,2.1l2.32,1.24a2.19,2.19,0,0,1,1.91,1l.27.14c.78-.18,1.63.78,2.44,1a2.11,2.11,0,0,0,1.21.39c.17.25.93-.27.69.37,1-.05,1.25.81,2.29.7-.12.19-.25.17-.38.32.33.36.61-.13.94.24.45.6,1.66,0,1,1l.14.07c.2-.27.44,0,.67.1.59.32,1.19.62,1.77,1l-.13.19,1.07.64,1.32.79.13-.19.26.16,1.47.87c2.48.93,4.49,1.11,6.76,2.68a7,7,0,0,0,2.53,1l.14.08c.35.05.71.75,1.07.36.13,0,.26-.07.39-.3,0,.52.45.45.8.21-.13.19.07.38.27.16a14.51,14.51,0,0,0,2-.11c.18-.25.35,0,.53-.21l.39.26c.39.23.78.67,1.18.5.68.28.58.87,1.31,1.13,1,.65,2,.43,3,1.42l.13.09c-.08.12-.14.23,0,.27.17.75,1.49,1.06,2.1,1.64.32.51-.49,1.44.23,1.8l.39.26.39.25c.22.1.43.38.66.16a.73.73,0,0,0,.8,0l.66.42.14-.18c.33-.53,1.21-1.25.43-1.37-.2.3.23.36-.15.73l-.52-.35-.27-.17-.13-.08-.52-.34-.14-.09.69-.93c.63-.17,1.24.35,1.87.39l.13.09.13.08.13.09a1.83,1.83,0,0,0,.69-.66l.14-.18c-.14-.18-.06-.43-.39-.53l.14-.19-.8-.51-1.32-.86-.4-.26-.26-.17-.27-.18-.26-.17c-.08-.1,0-.27-.13-.36l.2-.28,9.49,3.93a.23.23,0,0,1-.14,0c-.57.51.24.56-.17,1,.07.07.13.14,0,.28l-.39-.28a2.55,2.55,0,0,0-.71,1.2l1.3.91.14-.18.13.09c.06.29.39.5-.18,1l.39.28.91.64.78.54.26.19c.36,0,.73-.27,1.11-.91-.07-.12-.25-.19-.12-.37l-.13-.09-.26-.18.71-.92.13.09.15-.18.13.09.78.55.13.1.26.18a.77.77,0,0,1-.45,1.09c-.14.13-.28.14-.4,0l-.15.18.13.1-.14.18-.57.73.26.18,1,.73a3.77,3.77,0,0,1,1.53,1.64c.71.21.53,1.82,1.7.94.21.2.45,0,.66.21l.13.09.14-.18c.32.42.89.53,1.16.73a4,4,0,0,0-.86-.27c-.19,0-.33.26-.51.5l2.85,1.36a1,1,0,0,0,0,.53c.17.44.49.84.32,1.39.37-.13.71.24,1.05.49a1.92,1.92,0,0,0,1.9,0l.44-.54a.6.6,0,0,0,.5.08,39.11,39.11,0,0,0,7.34,2.34c-.86-.53-.43-.78-.42-1.59a.68.68,0,0,0,.4.19c-.24.66.7,1,1.18,1.12a.35.35,0,0,0,.11.1,1.57,1.57,0,0,0-.34.77l.65.43a3.08,3.08,0,0,1,2.76,1.53l.39.25c2.38,0,3.69,2.46,5.4,3,.74.22,2-.48,2.4.46.14-.23.41-.51.28-.64-1.28-.48-1.4-1.24-2.78-1.54-.4-1.31-4.29-2.2-4.81-4.3.07.07.21-.2.47-.18a.24.24,0,0,0-.13-.36l-.27-.17c-.48.17-.33.58-.53,1-.27-.37-.53.2-.8,0,.1-.79-.76-.5-.79-1.07-.68-.14-.76-.51-1.18-1.05-.38-.18-.72-.34-.14-.9l-.14-.08a.93.93,0,0,1,.57.08l.15-.17.15-.18,1.24.07c.13,0,.26.19.41,0a2.22,2.22,0,0,0,.88.26c-.14.15-.33.14-.21.32.17-.23.72.54.8.8l.53.34a.65.65,0,0,1,.53-.2c.88-.63.65-1.29,2.14-1.91.16.46,1,0,.67.44.17.16.54.25.4.53-.14,0-.27-.16-.4,0,.26.37.53-.2.8,0s.14.4.4.54.06.46.4,0c.11.33.62.5.53.9.18.14.55-.45.4,0l.14.08a2.66,2.66,0,0,1,1.74.59c.41-.52-.94-.38-.53-.9.83-.07.92.51,1.61.23-.14.21-.41.16-.27.37a10.94,10.94,0,0,1,1.09-.94c-.24-.14-.24-.37-.13-.64.27,0,.54-.7.81-.57-.9.89.59.68.14.09a4.78,4.78,0,0,1,1.75.87c.27.28.55-.15.81.25l.56-.74-1.22-.79c.18-.66-1,.41-.81-.53.18-.25.36,0,.54-.2-.7-.8-.26-.34-.94-1.16l-.13-.09a1,1,0,0,1-.54-1.45l-.14-.09a13.74,13.74,0,0,1-2-1.05c.46-.64-.37-.2.13-1a2.12,2.12,0,0,0-.26-.31c0-.05,0-.08-.06-.08a2,2,0,0,0-.31-.24c.28-.44.52-.25.81-.68.27.23.59-.14.9-.42a8.53,8.53,0,0,1,3.41,2.17l.82-.29c-.12.27-.11.49.13.64.08.06.14.13,0,.27l.55.36c1.93-.85,1.62,1,3.55,1.48l.13.09c.85-.47,1.24.33,2.45.27.52.11.54.13.81.57.28-.48.53.53.82-.27,0-.42-.65-.61-.8-1.12.24-.26.46.06.68.19a.72.72,0,0,0,.12-.67c.28-.18.43-.47.05-.69-1.14.5.15-.53-.92-.17h0c.36-.32.13-.48.05-.67a4.82,4.82,0,0,1,1,.45l.4.28c.09-.11.18-.2.27-.09.16-.46-.6-.63-1-.93a12.34,12.34,0,0,0,1.28-1.79c.35.63,1-1.14,1-.12a1.7,1.7,0,0,1,.73-.61c-.85-.22.67-1.44.53-2.22.18.11.37.19.57-.15.35-.5.67-.44,1-.12.61-.92-.19-.81-.79-.9-.74.19-.65.07-1.27.2.81-.63-1.16-.39-.77-1.18-.37.09-.71.33-.69-.23a7.71,7.71,0,0,1-1.94-.32,2.35,2.35,0,0,1-1-.42,1.9,1.9,0,0,0-.16-1.05c-1.15-.12-.12-1.61.49-1.37.14.05.28-.07.42,0l.15-.18c.26.2.57-.35.83.06.7-.17,1.46-1.27,2.18-1.54-.32-.24-.14-.61-.66-.8l-.67-.51c-.58.28-.68-.72-.35-1.15-.32-.44.22-.6.61-1-.35-.23-.7,0-.39-.58a1,1,0,0,1,0-.78.26.26,0,0,1,.15,0,1.92,1.92,0,0,1,2-.56c-.6-.5.73-.48,1-.42-.08.17-.29.36-.16.46.44-.48.86-.59,1.27-.21l.13.1c.15-.18.29-.13.43-.26a.65.65,0,0,1-.26-.48c.24-.28.88,1.31,1.51.55l.14.1c.07.12,0,.27-.15.46,0-.44-.18-.39-.57.16a.27.27,0,0,0,.42,0c.11.16-.2.43,0,.56l.15-.18c1.07,1.08,1.87,1.44,2.85,2.41l0-.84c.19-.2.37,0,.55.12,0-.61.74-.63,1.18-1.43a10,10,0,0,0,1.3-1.05,6.61,6.61,0,0,0-.23-1.33l.41.31c-.15.13-.09.21,0,.28l.29-.36c.36.41.75,0,1.11.54s.83.27,1.24.63c3.42.63,7.51.72,10.29,4.07-.46.91-.85.4-1.29.76l.13.1c.25-.22.47,0,.7-.05.64-.15.54-.72,1-1.24-.6-1.39-1.76-1.39-2.4-2.42,1.16-.73,2.23.25,3.39-.61l.13.1c.79.1,1.65-1.17,2.45-1.33,0-1-1.47-1.56-1.13-2.62l-.27-.21c-.79-1.3,2-1.31,2.1-3.05.29-.09.55.33.86-.22-.08-.12-.27-.21-.13-.39l-.27-.2-.54-.42-.27-.21c.35-.36-.41-.44-.53-.69C661.92,346.58,661.16,346.18,662.22,345.3ZM243.63,366.87a15.39,15.39,0,0,1-7.42,4.36,15,15,0,0,1-7.75.12,14.23,14.23,0,0,1-6.6-3.72,11.75,11.75,0,0,1-1.43-1.65,15.22,15.22,0,0,1-2.51-5.25,15,15,0,0,1-.08-7.94,14.23,14.23,0,0,1,3.84-6.54A15.95,15.95,0,0,1,237,342.49a13.08,13.08,0,0,1,6.79,4.88l-5.56,1.51a7.7,7.7,0,0,0-3.94-2.51,9.47,9.47,0,0,0-4.8.13,10.08,10.08,0,0,0-4.64,2.61,9.06,9.06,0,0,0-2.45,4.53,11.94,11.94,0,0,0,.25,5.81,12.3,12.3,0,0,0,2.4,4.78l.31.36a9.27,9.27,0,0,0,4.41,2.7,10.07,10.07,0,0,0,5.33-.08,9.33,9.33,0,0,0,4.21-2.31,7.71,7.71,0,0,0,2.14-4.15l5.55-1.5A12.9,12.9,0,0,1,243.63,366.87Zm30.87-14.13a9.64,9.64,0,0,1-2.49,5,13.4,13.4,0,0,1-4.89,3.27,13.16,13.16,0,0,1-5.77,1,9.39,9.39,0,0,1-5.18-1.91,11.44,11.44,0,0,1-3.65-5.05l-1.07-2.69-5.8-14.51L250.1,336l5.64,14.11,1.26,3.17a6,6,0,0,0,8.6,3.75,6.75,6.75,0,0,0,3.92-3.37,6.61,6.61,0,0,0-.23-5.29l-1.82-4.54-5.09-12.74,4.45-1.78,4.85,12.14,2,5.06A11.21,11.21,0,0,1,274.5,352.74ZM299.42,341a8.73,8.73,0,0,1-1.66,4.41,11.6,11.6,0,0,1-4.26,3.53,13.07,13.07,0,0,1-5.18,1.49,8.65,8.65,0,0,1-4.62-.91,7.51,7.51,0,0,1-3.21-3.31l4.56-2.34a4.65,4.65,0,0,0,2.75,2.09,5.27,5.27,0,0,0,3.86-.61,5.72,5.72,0,0,0,2.89-2.83,3.87,3.87,0,0,0-.17-3.38,3.35,3.35,0,0,0-1.86-1.74,5.83,5.83,0,0,0-2.55-.29,31.7,31.7,0,0,0-3.66.64,32.77,32.77,0,0,1-4.83.75,7.66,7.66,0,0,1-3.56-.65l-.25-.11a7,7,0,0,1-3.11-3.31,7.77,7.77,0,0,1-.89-4.5,8,8,0,0,1,1.82-4.19,12.82,12.82,0,0,1,4.21-3.29,11,11,0,0,1,7.16-1.28,7.85,7.85,0,0,1,5.32,3.81l-4.71,2.41a3.82,3.82,0,0,0-2.59-1.74,5.6,5.6,0,0,0-3.77.66,5.13,5.13,0,0,0-2.51,2.46,3.65,3.65,0,0,0,.22,3.29,3,3,0,0,0,1.73,1.59,5.71,5.71,0,0,0,2.47.26c.43,0,.92-.1,1.48-.2s1.31-.23,2.09-.39a36.82,36.82,0,0,1,4.93-.74,7.86,7.86,0,0,1,3.89.78,7.07,7.07,0,0,1,3.16,3.36A8,8,0,0,1,299.42,341Zm13.67-2.91-9.31-17L301,315.87l-6.86,3.76-1.87-3.43,17.86-9.78,1.88,3.42-6.81,3.73,2.77,5.06,9.37,17.12Zm35.63-25.69a14,14,0,0,1-2.64,7.11,15.73,15.73,0,0,1-13.63,6.35,14.17,14.17,0,0,1-7.16-2.56,14.9,14.9,0,0,1-5.06-6.14,15.8,15.8,0,0,1-1.32-4.27,13.53,13.53,0,0,1-.12-3.54,14.18,14.18,0,0,1,2.67-7.1,15.15,15.15,0,0,1,2.66-2.82,15.92,15.92,0,0,1,3.34-2.08,15.18,15.18,0,0,1,7.64-1.45,14.14,14.14,0,0,1,7.13,2.54,16,16,0,0,1,6.49,14Zm33-2.72-5.26-19.28L373.17,312l-3.2.87-13.9-16.93,5.27,19.29-4.62,1.26L349,288.32l5-1.36,15.91,19.38,3.82-24.77,4.94-1.35,7.69,28.16Zm38.36-21.18a7.84,7.84,0,0,1-3.07,3.49,12.31,12.31,0,0,1-5.79,1.74l-5.28.46,1,11.8-4.77.41-2.5-29.09,10-.86a12.83,12.83,0,0,1,5.77.66,8.12,8.12,0,0,1,3.74,2.82,8.61,8.61,0,0,1,1.53,4.3A8.7,8.7,0,0,1,420.12,288.46Zm26.17,15.89-2.13-6-12.22.07-2.07,6-5,0,10.3-29.29,5.54,0,10.62,29.18Zm9.21.29,1.41-29.16,4.78.23-1.41,29.16Zm34.2,3.59-4.74-.66L473.69,284l-3,21.59-4.75-.66,4-29,4.74.66L486,300.17l3-21.55,4.74.66Zm145.41,60.33c.33.28-.23.8-.62,1.27-1-.12-.35-.66-1.33-1.31C634.24,368,633.91,368.44,635.11,368.56Zm-6-45.28c-.36.52-.52.22-.55.75a.8.8,0,0,0,.44.55,1.3,1.3,0,0,0-.35.18l.11.11a1.63,1.63,0,0,1-.9-.48l-.14.19c-.21-.08-.25.14-.28.37l.15.09a.83.83,0,0,0,.15.17l-.15.11-.13-.09c-.67-.51-2-.81-.81-1.9a7.7,7.7,0,0,1-1.22-1.63c.57.28.77.49,1,.4,0-.29-.51-.42,0-.85,1.09.6,2.08,1.14,2.27,2.31C628.8,323.44,628.93,323.19,629.08,323.28Zm.25,43.77c-.5-.23-.22-.68-.81-.89A.61.61,0,0,1,629.33,367.05Zm-3.82-28.75c.22.12.44.41.67.24h.06c.55.27,1,0,1.22.63.27.16.11.44.41.59-.25.2-.48.1-.72.33-.2-.39-1.11.19-.84-.33C625.94,339.3,625.41,338.88,625.51,338.3Zm3.33-17.38-.55.74c-.57-.21-.6-.58-.91-.87.07-.16.26-.37.12-.47C627.92,320,628.39,320.8,628.84,320.92Zm-1.61-.22c-.29-.55-.46-.23-1.05-.68C626.63,319.87,628,319.79,627.23,320.7Zm-2.12-1.94c.34.35,1.7.75.77,1.06-.3-.31-.57.13-.88-.3a.28.28,0,0,1,.44,0C625.91,319.09,624.63,319.2,625.11,318.76Zm-1.41,5.05.16.11,0,0,.14.1h0c.35.25.7.5,1.07.78.2.11.38-.11.58.1a3.68,3.68,0,0,0,1.17.68,1.15,1.15,0,0,1-.52.07c-.43.81-.86.26-1.29.21-.25.24-.49,0-.73-.23a.49.49,0,0,0,.53-.18c0-.33-.37-.55-.75-.77,0-.56-.49-.26-.89-.54C623.36,324,623.53,323.77,623.7,323.81Zm-.47,1.17a.28.28,0,0,1,0,.22l-.16-.11A.6.6,0,0,0,623.23,325Zm-1-8.07-.14.19c-.9-.44-1.06-1.11-1.4-1.73C621.5,315.23,621.64,316.52,622.27,316.91Zm-2.71,16.14a1.15,1.15,0,0,1,.14.66l-.29.36c-.35.47.19.69.55,1s.84.61.68,1.08c-.73-.31-.64-.86-1.24-1.2-.28.31-.56-.23-.85,0l-.28-.2c-.68.14-1.63-.84-1.56-1.38a3.33,3.33,0,0,1,1.14.24c.14-.18,0-.3.14-.47a1.26,1.26,0,0,1-.59-.81,1.4,1.4,0,0,0,.39-.1,2.82,2.82,0,0,0-.29-.25,1.83,1.83,0,0,1,.5-.53C618.45,331.87,619,333.06,619.56,333.05ZM616.66,320c.24-.23.48,0,.72-.06l0,0,1.09.62-.1.12c.42.25.28.63-.14.75l-.09,0c-.48-.32-1-.64-1.51-1A1.8,1.8,0,0,1,616.66,320Zm-.82,3.95.15.1c.27.53.69.34.72,1.07h-.05l-.3-.2-.73-.48a.68.68,0,0,1-.32.09A.73.73,0,0,1,615.84,323.94Zm-3-1.83.28.2a1.29,1.29,0,0,1-.31.37A1,1,0,0,1,612.84,322.11Zm-5.36-1.62c.57.41,1.15.8,1.72,1.18l-.2.28c.42.31-.58,1.6-1,1-.51.85-1,.55-1.54.05Zm-7.17,35.18.27.18.41.29c-.18.24,0,.37-.3.64-.18-.09-.36-.3-.55-.11l-.27-.18C600,356.21,600,356,600.31,355.67Zm1.88-8.57-.14-.1c-.44-.4-.7-.5-.68-.76.28-.19.55.35.83,0-.4-.2-.53-.48-.12-.93a2.05,2.05,0,0,1,1.12-.34c.37-.1.76-.85,1.13-.62s.65-.15,1,.12c.58-1.16,1.12-.07,1.68-.23.33.18.33.45,0,.83-.33-.07-.65-.31-1-.12.47.68-.12.85-.17,1.58.36.21.7.43.4.84l.14.1c.12.15.06.35,0,.56-.37.12-.7.06-.71.63.08.11,0,.27.13.37l.13.1c-.09.16,0,.27-.15.46l-.13-.1a1.66,1.66,0,0,0-.44.82c.6.54-.73.74-1,.44l-.13-.1,0,0s-.09,0-.12.06c-.37.05-.71-.56-1.07-.67.18-.51-.81-.67-1.09-1-.33.39-.64-.33-1-.4,0-.56.34-.31.71-.63l.13.1a.71.71,0,0,1,.56.1C602.55,347.73,602.15,347.48,602.19,347.1Zm3.1,24.88a.92.92,0,0,0-1.5,0c0-.56.16-.45-.4-.3-.64,0-.63-.36-1-.78.5-.56,1.45-1.51,2.23-.65.45.4.3.62.92.69C604.73,371.51,606.05,371.45,605.29,372ZM601,374.36a1.53,1.53,0,0,1,0,.37c-.5,0-.77-.23-1.14-.54.82-1.1.3-.92,0-1.37.22-.14.44,0,.65-.41.13.09-.05.3-.12.47.24,0,.47-.36.7-.75a5.07,5.07,0,0,1,1.3.33l.19.06a.71.71,0,0,0,.06.25c-.13,0-.23-.08-.25-.31l-.51.76c.21.3.8-.28.28.44a.67.67,0,0,0,.19,0s0,.07,0,.09c.36.13.39.11.48.23v0c-.85,0-1.71-.18-2.55-.18C600.2,374.21,600.68,374.17,601,374.36Zm-1.17-1.81c-1,.54-1.44.24-1.86.51l-.15-.12c.12-.11.24-.1.36-.21-.48-.12-.13-.5-.5-.66-.07-.07-.13-.14,0-.28.26.39.56-.18.83-.25-.07-.11,0-.26.17-.45.38-.71-.28-1.1.51-1.93.7-.07.6.07,1.35.14.28.15.13.42.38.57-.24.22-.46.21-.71.62.16.18-.24.53-.46.82l.24.18c-.08.13-.2.19-.47.08C599.56,371.92,599.47,372.32,599.8,372.55Zm-2.38-3.82c.39-.45.73,0,1.08.22C598.11,369.4,597.77,369,597.42,368.73Zm4-11.75.43-.55.27.19c.35.38,1.06,0,.65.78A2.21,2.21,0,0,1,601.38,357Zm1.3,7.59a1.16,1.16,0,0,0-.14.27c-.19-.06-.16-.21,0-.38A1.18,1.18,0,0,0,602.68,364.57Zm-.22.53a1.24,1.24,0,0,0,0,.61c-.22,0-.44-.18-.65,0l.84.49,0,.1.13.1c-.42,1.34-1.12-.27-1.77-.16l-.13-.1.15-.18a.69.69,0,0,0-.59-.83A1.94,1.94,0,0,1,602.46,365.1Zm-2.43-.78c-.32-.25-.13-1.14.39-1.14a.9.9,0,0,1,.5-.11C600.77,363.88,600.57,364,600,364.32Zm.42.83-.12,0a2.9,2.9,0,0,1-.54-.21C600.17,364.75,600.27,364.84,600.45,365.15Zm-.58-.72-.1.07c-.06.14,0,.23-.06.36a.32.32,0,0,1-.17-.32A.31.31,0,0,1,599.87,364.43Zm-3.8-1.58.15-.18.13.09c.64-.58.53-1.13,1-1.27.14-.18.06-.29.15-.45.12-.48,1.4-.73,1.92,0,.55,1.35-.47.88-1.34,2.46.27.28-.56.86-.71.63-.58.74-1.1.41-1.63-.06C596,363.58,596.23,363.16,596.07,362.85Zm-.46,9.6c-.05.23-.19.49.22.57a1.6,1.6,0,0,0,.92,0,7.17,7.17,0,0,0,1.74.63c1-.61.85,1.54,1.79,1.86-.34.64-.72-.22-1.07.18l-.13-.08c-.36-.06-.7.24-1.07-.1-1.15-1.6-3.65,0-4-2.14-.26-.12-.13-.41-.41-.52.56,0,.29-.6.78-.33,0-.33.14-.47.39-.31a.73.73,0,0,1,.67.13Zm-3.21-14.21c.27,0,.54.18.83-.21.32.1.65-.35,1,.11l.4.28c-.27.4.55.46.38.83.47.31-.79,1.16-.32,1.47.25.14.1.42.39.56-.15.13-.28.08-.42.27s0,.37-.3.63c-.28.07-.57.64-.83.27l-.13-.1c-.59,0-.94-1.1-.89-1.75-.17-.32-.46-.61-.64-.93Zm2.39,8.82c-.52.58-1.53.11-.92-.67.14,0,.07.16,0,.27C594.25,366.36,594.83,366.55,594.79,367.06Zm-89.1-54.71-4.63-1.23,6.48-24.44-7.55-2,1-3.78,19.69,5.22-1,3.78-7.51-2ZM519,341.1l.76.25a.86.86,0,0,1,.21.65A4.39,4.39,0,0,0,519,341.1Zm2.88,1.29c.76-.19,1.08.32,1.63.27C522.79,343.38,522.43,342.74,521.91,342.39Zm-.17-24.93-4.52-1.58,9.61-27.56,4.52,1.57Zm4.08,26,1,.33a3,3,0,0,1,1.1,1.62C527.1,344.32,526.4,344.19,525.82,343.43Zm4.22,2.85c.4-.52.91.41,1.28-.62.45.62.71,1.41,1.17,1.66C531.22,347.64,531.33,346.23,530,346.28Zm6.76,2.3c-.95-.17-.77.37-1.11-.85.78.39.79.1,1.23.66ZM549,329l-4.36-2-4.19-25.79-9,19.88-4.36-2,12-26.65,4.37,2,4.2,25.75,8.93-19.84,4.37,2Zm34.29,37.3-.39-.28-.28.37-.39-.28c.14-.22-.06-.34-.25-.45a.24.24,0,0,0,0-.13l1.41.58Zm-.58-41.44a7.76,7.76,0,0,0-1-4.46A9.48,9.48,0,0,0,578.4,317a10.2,10.2,0,0,0-5.08-1.6,9.17,9.17,0,0,0-5,1.29,11.5,11.5,0,0,0-4,4,11.62,11.62,0,0,0-1.82,5.41,9.11,9.11,0,0,0,1.07,5,10.12,10.12,0,0,0,3.72,3.81,9.17,9.17,0,0,0,6.55,1.47,9.5,9.5,0,0,0,5.64-3.49l-9.34-5.74,2-3.26,13.7,8.43-2,3.19a14.44,14.44,0,0,1-18.87,3.09,15.08,15.08,0,0,1-5.4-5.57,14.24,14.24,0,0,1-1.81-7.35,15.82,15.82,0,0,1,8-13.1,14.26,14.26,0,0,1,7.4-1.68,15.9,15.9,0,0,1,13.25,8.6,12.94,12.94,0,0,1,1.09,8.28Zm12.43,50.52a2.31,2.31,0,0,0-.28-.19,6.53,6.53,0,0,0-1.63.22.9.9,0,0,0-.66,1.09,9.86,9.86,0,0,0-1.2-.68c.31-.17,0-.36-.29-.57l-.52-.38a1.74,1.74,0,0,0,.45-.82,7.62,7.62,0,0,0-1.84-.79c-.13-.1-.27,0-.4,0,.33-.38-.4-.41-.51-.64a1.06,1.06,0,0,1-.1-.64l-.13-.09a.75.75,0,0,1-.51-.64l-.13-.09-.13-.09c.21-.7.58-1.49,1.26-1.09.46-.06.93-.57,1.38-.45.42.53.89.2,1.32.65a1.76,1.76,0,0,0,.45-.81c-.15-.14-.27-.28,0-.55.44.29.91-.16,1.34.4a2.09,2.09,0,0,1,1.69,1.26l.13.1c.22.25.45.5.1.93l-.15,0c1-.57-.86-.1-.68-.68-.27.3-.13.43,0,.55a9.51,9.51,0,0,0-1-.17.51.51,0,0,0,.31-.17c.34-.37-.39-.42-.5-.66-.34.39-.61-.33-.93-.4l-.29.36.13.1c.34.15.66.58,1,.73a5.67,5.67,0,0,1-2.33-.59c-.27-.1-.53.14-.77.61.15,1,.58,1,.19,1.73,1.91.31,4.34,1.18,4.3,2.29.18.06.34-.29.51-.5,0,.32.34.5.69.67Zm.62.49-.15-.12h.12c.12-.18-.06-.24-.14-.35C596.17,374.78,596.24,375.59,595.79,375.89Zm1,.11a.74.74,0,0,1-.85-.05c.4-.11.79-.6,1.19-.46.33.36.63.64.89.9-.43-.1-.24-.28-.69-.28C597.1,376,596.91,376.21,596.74,376Zm6.56,4.25c-.68-.45-1.63.24-2.8-.05-.56-.14-.71-.68-1.21-1a4.3,4.3,0,0,0-1.48-.54,1.15,1.15,0,0,0,.38-1.88.28.28,0,0,1,0-.18,1.87,1.87,0,0,1,.44.85c.86-.32.59.51,2.41.62.69-.6-.58-.39.11-1,.48.54,2.17.95,2.57,1.53C602.5,379.09,603.7,379.39,603.3,380.25Zm.64-2.29c-.36-.35-.81.1-.81-.49-.54-.19-.6,0-.81-.48a1.23,1.23,0,0,1-1.22-.72c-.17-.25-1-.24-.69-.68.68.46,1.61.46,1.87-.5l.73.1c.46.28,1,.56.94,1,.2-.05.58,0,.39.29.21.32-.39.16-.32.63.15.28,1,.38.64.78.14.1,0,.27.12.38l.07.08C604.41,378.35,604.06,378.43,603.94,378Zm1.18,2.15a.65.65,0,0,1,.45.13Zm2.76-10.62a.22.22,0,0,1-.24-.09l-.14-.1a.88.88,0,0,0-.8-.31l-.53-.39-.66-.49.16-.24c.69.36,1.44.71,2.32,1.1C608,369.15,607.92,369.32,607.88,369.49Zm-1-2,0-.07.26.19c.11-.17.19-.13.28-.08a.36.36,0,0,1,.35,0,2.93,2.93,0,0,1,.21.27A.91.91,0,0,1,606.87,367.5Zm1.31,2a.19.19,0,0,0-.12,0l.12-.43.52.23A.67.67,0,0,0,608.18,369.52Zm.85-5.47a1.37,1.37,0,0,1-.69-.18c.57-.53.52-.47.82,0C609.12,363.87,609.08,363.93,609,364.05Zm-.39-13.5c0-.5-.18-.11-.54-.4l-.13-.1c-.18-.18-.55-.31-.4-.58.32.27.63.52,1,.14-.12-.15,0-.36,0-.56-.12-.15,0-.36,0-.57a.64.64,0,0,0,.54.12c.6-.15.66.63.66,1.07C609.22,350,608.9,349.73,608.64,350.55Zm.9-7.6a5.85,5.85,0,0,1-.72.34c-.56.4-2.17,1.31-1.82.13-.66-.22-.36-.73-.41-1.13-.42-.49-1.2-.07-.54-1a.75.75,0,0,1-.42-.57l-.41-.3c-.88-.87.94-.31.85-1.37a.72.72,0,0,0,.56.11.29.29,0,0,0,.24,0c1.16,1.23,2.47.67,3.15,2.18A1.83,1.83,0,0,0,609.54,343Zm2.06,2c.47-.15.44,0,.43-.32a4.47,4.47,0,0,0,1.3.06c.24,0,.08.39,0,.62a2.54,2.54,0,0,0-.78-.22A.8.8,0,0,1,611.6,345Zm.35,31.2c.45-.38,2.16.1,1.74.86.13.08.27-.16.4-.29C613.77,378.18,612.39,376,612,376.17Zm2.81-.92c-.56.39-.61.11-.76-.2.11,0,.23,0,.33,0a.41.41,0,0,1,.18-.13C614.55,375.11,614.94,375,614.76,375.25ZM614.47,354c-1-.72-2-1.46-1.29-2.68.15-.12.28-.08.43-.26,1,0,2.65.17,3.14,1.47a.8.8,0,0,0,.69.22h0a1.58,1.58,0,0,0,.56.63c-.63,1-1.34,2-1.14,2a.22.22,0,0,1-.11.12A11.79,11.79,0,0,1,614.47,354Zm-1-8.62,0,0s0,0,0,.05Zm3.38-4a3.11,3.11,0,0,1-.32,1.45,12.43,12.43,0,0,1-2.48-.65c.31-.4.09-.59.56-.73.76-.58,1.5-.21,2.26-.92C617.12,340.75,616.5,341.2,616.86,341.38Zm1.68,34.13c-.2.4,0,.66-.41,1.11-1.35-.83-1.51-1.4-2.22-1.73H616l.13.1c.59-.3,1.17-.36,1.76-.61a2,2,0,0,1-.16.87C618,375.66,618.27,375.22,618.54,375.51Zm-1.07-36c-.32-.28-.65,0-1-.15-.27-.32-.55.11-.83-.32a1.2,1.2,0,0,0-.29.64,9.19,9.19,0,0,1-3,1.29l-.12.15a6,6,0,0,1-1.58-2c-.34-.13-.12.65-.64.69-.15-.18,0-.47-.2-.64.08.72-.48,0-.77.89a9.06,9.06,0,0,0-1.77-.92c.36-.51.75-.46.74-.92l-.28-.19-.27-.2c-.34.39-.66-.34-1-.4-1.25-.42-.48-2.67-.13-4a2.52,2.52,0,0,0-2.8-.28c-.63.21-.11.86-1,1.57a15.87,15.87,0,0,1-.71,2.89c-.5.19-1,.41-1.48.62l4.17-10.45.14,0a7.17,7.17,0,0,1,.11,1.48l.42.3c1.09.85,3.34-.66,2.81-1.14,0-.36-.1-1.06-.7-.49a1,1,0,0,1,.06-.14,1.3,1.3,0,0,1,.36-.2c.43.09,1,.92,1.7.7l.28.2s0,0,0-.06a2,2,0,0,0,.49.3c.06.21.26.32.51.41a2.88,2.88,0,0,0,1.23,1.22c.19-.19.38,0,.57.12.37-.37.75.42,1.13.52.33.81-1.29,1.41-1.85,1.8l-.14-.09-.42-.3c-.49.41-1.11.89-1,1.56l.14.1c.14.05.07.16,0,.28.28.29.3.66.84.87.14-.13.28-.08.42-.26l.14.1.14.1a3.43,3.43,0,0,0,1.56,0c1-.52,1.14.28,2,.83l.14.1c-.08.4,1,1.18,1.41,1l.29.2c.14,0,.28-.08.42,0s0,.28.13.38l.14.1c.48.15,0,.57.26.78.09.5-.05.67-.58.72l.55.41c.32.32.67-.62,1-.14a2,2,0,0,1-.31,1.21C617.93,340.79,618.23,340.1,617.47,339.53Zm2.91,8c-.08-.27-.49-.21-1-.14a2.57,2.57,0,0,1-.74-.69c.56-.27.5-.45.46-.69a7.78,7.78,0,0,0,1.84,1.31C620.64,348.29,620.31,346.78,620.38,347.57Zm1.14-7.62c.15-.18.29-.14.43-.26.14.1.28,0,.42,0l.14.11.55.4a3.28,3.28,0,0,0,.94,1.57c.32.12.67-.62,1-.13l.14-.18,1,.71h0a2.64,2.64,0,0,0-1.59.26.44.44,0,0,0-.22.14.94.94,0,0,1-.44-.64.72.72,0,0,0-.56-.12C622.43,341.94,620,341.73,621.52,340Zm.46,8.32c-.18-.09-.33-.2-.33-.36l.41-.25a.29.29,0,0,1,.2.19A1.9,1.9,0,0,0,622,348.27Zm1.14-2.31-.73-.33c.12-.29-.5-.37-.61-.59a1.37,1.37,0,0,1,1.55,0C623.27,345.38,623.2,345.67,623.12,346Zm.65.34-.12-.07a.64.64,0,0,0,0-.41c.16-.2.32-.1.49-.08A.6.6,0,0,1,623.77,346.3Zm.92,22.13a.88.88,0,0,1-.58-.59c.62-.15.8.23,1.07.59l-.08,0,.27.2C625.12,368.91,624.91,368.58,624.69,368.43Zm.53-25.16a5.66,5.66,0,0,0-.71-.52.7.7,0,0,1,.14-.19,3.21,3.21,0,0,1,1.52.08C625.85,343.08,625.52,343.45,625.22,343.27Zm1.51,27.37a1.06,1.06,0,0,1,0-.54c.22.09.41.19.59.27A5.77,5.77,0,0,1,626.73,370.64Zm1,.16a.41.41,0,0,1-.15-.27l.39.22A1.25,1.25,0,0,1,627.76,370.8Zm.29.72a2,2,0,0,1,.44-.47,5.21,5.21,0,0,1,1,.84A10.76,10.76,0,0,0,628.05,371.52Zm2.47,1.35c-.54-.12-1.16-.71-.79-1.08.19.58.63.46,1.12.72A3.7,3.7,0,0,0,630.52,372.87Zm.74.34a.78.78,0,0,1,0-.16h.17Zm.11-1.23c-.39-.41-.82-.61-1.09-.93l-.41-.27a1,1,0,0,1-.62-.06,2.47,2.47,0,0,1,2.21,1.16Zm.28-1.12c-.52-.18-.34-.55-.66-.79-.28,0-.32.45-.84.23-.52.12-1-.5-1.52-.29-.09.14-.15.26-.21.36-.33-.26-.61.1-.62-.38-.52-.14-.17-.59-.69-.73.14-.19.28-.15.41-.28l-.13-.09a15.77,15.77,0,0,1-1.62-1.66c.6-.16.77-.88,1.54-.87a3.88,3.88,0,0,0,.33-.23,1.35,1.35,0,0,0,.3.46,1.56,1.56,0,0,1,.76,2c.63.11.5,0,1,.16a1.64,1.64,0,0,0-.46.82c.43-.24.86-.53,1.25.08.19-.19.39-.52.58-.43l-.45.53a3.55,3.55,0,0,1,1.8.21Zm-1.2-5.34c.64-.07.58.05,1.31.47.26-.25.39.1.4.31-1.16,1.43-2.87-.22-2.49-.73-.59.2-.59,0-.89-.22l.2,0a0,0,0,0,1,0,0l0,0a1.72,1.72,0,0,1,.43.05c.09.12.18,0,.28-.07s.28-.08.42,0l.24.18h.06ZM633.81,325h0Zm4.26,5.05a.72.72,0,0,1,.28.5.27.27,0,0,1,0,.25c-.59-.14-.82-.69-.77-1.34a.42.42,0,0,1,.21.38c.61-.16.18-.26.27-.56a.53.53,0,0,0,.25,0,.4.4,0,0,1,.12-.11,1.26,1.26,0,0,1,.64,1.05C638.74,329.93,638.42,329.68,638.07,330.05Zm8.08,22.57c-.46-.44-1.34-.75-1.37-1.31a.72.72,0,0,0-.56-.12c-.76.09-2.73-.07-2.17-1.31.09-.08.17-.14.25,0a1.7,1.7,0,0,0,.73-.61.58.58,0,0,1,0-.16c.11,0,.22-.05.32,0l.14.1.55.41a3.21,3.21,0,0,0,.94,1.56c.32.13.67-.61,1-.12l.14-.18,1,.71c.08.12,0,.28.13.39C646.81,352.39,646.47,352.81,646.15,352.62Zm1.93-3.18c-.2-.39-1.11.19-.84-.33-.37-.46-.9-.88-.8-1.46.23.12.46.44.7.23.56.29,1,0,1.25.64.27.16.11.44.41.59C648.55,349.31,648.32,349.21,648.08,349.44Zm9.73,6.19c-1.17.07-2.28-.95-3.45-.9a9.84,9.84,0,0,1,3.88.65C658.1,355.55,658,355.5,657.81,355.63Zm1.47-15.73c.07.12,0,.27-.16.46.08.31.43.54-.16,1-.33-.45-.67-.2-1-.45s-.86-.13-1.27-.66c-.26-.08-.41,0-.42-.31-.22-.87.76-.85,1.17-1.43l.28.21.15-.18.28.21c.38-.06.52.05.56.41.75-.2-.11-.31.45-.82.52.34.86.72.83,1.2-.33-.29-.65-.54-1-.17A.72.72,0,0,1,659.28,339.9Zm2,14.27c-.29.74.66-.47.84.06-.75.62-1.16.75-1.62,1.67,0-.8-.62.41-1-.16a5.09,5.09,0,0,1,1-.4c-.11-.22-.28-.36.48-1.09C661.06,354.14,661.15,354.05,661.24,354.17Zm1.66-5.43c.09.09-.48.77-.59.71C661.25,349.19,662.48,348.08,662.9,348.74ZM433.26,294.56l9.53-.06L438,281ZM410.1,280.3l-5.27.46.82,9.49,5.27-.45a5.88,5.88,0,0,0,4-1.58,4.54,4.54,0,0,0,1-3.61Q415.51,279.84,410.1,280.3ZM339.25,302a9.06,9.06,0,0,0-4.79-1.89,10.11,10.11,0,0,0-5.23,1,11.66,11.66,0,0,0-1.67.94,9.48,9.48,0,0,0-2.47,2.42,9.08,9.08,0,0,0-1.64,4.89,9.3,9.3,0,0,0,0,1.29,12.47,12.47,0,0,0,1.2,4.39,12.27,12.27,0,0,0,3.56,4.62,9.3,9.3,0,0,0,4.81,1.93,10.73,10.73,0,0,0,9.37-4.36,9.24,9.24,0,0,0,1.63-4.93,12.2,12.2,0,0,0-1.24-5.7A12,12,0,0,0,339.25,302Zm3.56,4.6a12,12,0,0,0-3.56-4.6,9.06,9.06,0,0,0-4.79-1.89,10.11,10.11,0,0,0-5.23,1,11.66,11.66,0,0,0-1.67.94,9.48,9.48,0,0,0-2.47,2.42,9.08,9.08,0,0,0-1.64,4.89,9.3,9.3,0,0,0,0,1.29,12.47,12.47,0,0,0,1.2,4.39,12.27,12.27,0,0,0,3.56,4.62,9.3,9.3,0,0,0,4.81,1.93,10.73,10.73,0,0,0,9.37-4.36,9.24,9.24,0,0,0,1.63-4.93A12.2,12.2,0,0,0,342.81,306.61Zm73.1-22q-.41-4.77-5.81-4.31l-5.27.46.82,9.49,5.27-.45a5.88,5.88,0,0,0,4-1.58A4.54,4.54,0,0,0,415.91,284.61ZM438,281l-4.71,13.6,9.53-.06Zm0,0-4.71,13.6,9.53-.06Zm-22.06,3.65q-.41-4.77-5.81-4.31l-5.27.46.82,9.49,5.27-.45a5.88,5.88,0,0,0,4-1.58A4.54,4.54,0,0,0,415.91,284.61Zm-73.1,22a12,12,0,0,0-3.56-4.6,9.06,9.06,0,0,0-4.79-1.89,10.11,10.11,0,0,0-5.23,1,11.66,11.66,0,0,0-1.67.94,9.48,9.48,0,0,0-2.47,2.42,9.08,9.08,0,0,0-1.64,4.89,9.3,9.3,0,0,0,0,1.29,12.47,12.47,0,0,0,1.2,4.39,12.27,12.27,0,0,0,3.56,4.62,9.3,9.3,0,0,0,4.81,1.93,10.73,10.73,0,0,0,9.37-4.36,9.24,9.24,0,0,0,1.63-4.93A12.2,12.2,0,0,0,342.81,306.61Zm0,0a12,12,0,0,0-3.56-4.6,9.06,9.06,0,0,0-4.79-1.89,10.11,10.11,0,0,0-5.23,1,11.66,11.66,0,0,0-1.67.94,9.48,9.48,0,0,0-2.47,2.42,9.08,9.08,0,0,0-1.64,4.89,9.3,9.3,0,0,0,0,1.29,12.47,12.47,0,0,0,1.2,4.39,12.27,12.27,0,0,0,3.56,4.62,9.3,9.3,0,0,0,4.81,1.93,10.73,10.73,0,0,0,9.37-4.36,9.24,9.24,0,0,0,1.63-4.93A12.2,12.2,0,0,0,342.81,306.61Zm73.1-22q-.41-4.77-5.81-4.31l-5.27.46.82,9.49,5.27-.45a5.88,5.88,0,0,0,4-1.58A4.54,4.54,0,0,0,415.91,284.61ZM438,281l-4.71,13.6,9.53-.06Zm0,0-4.71,13.6,9.53-.06Zm-22.06,3.65q-.41-4.77-5.81-4.31l-5.27.46.82,9.49,5.27-.45a5.88,5.88,0,0,0,4-1.58A4.54,4.54,0,0,0,415.91,284.61Zm-73.1,22a12,12,0,0,0-3.56-4.6,9.06,9.06,0,0,0-4.79-1.89,10.11,10.11,0,0,0-5.23,1,11.66,11.66,0,0,0-1.67.94,9.48,9.48,0,0,0-2.47,2.42,9.08,9.08,0,0,0-1.64,4.89,9.3,9.3,0,0,0,0,1.29,12.47,12.47,0,0,0,1.2,4.39,12.27,12.27,0,0,0,3.56,4.62,9.3,9.3,0,0,0,4.81,1.93,10.73,10.73,0,0,0,9.37-4.36,9.24,9.24,0,0,0,1.63-4.93A12.2,12.2,0,0,0,342.81,306.61Zm0,0a12,12,0,0,0-3.56-4.6,9.06,9.06,0,0,0-4.79-1.89,10.11,10.11,0,0,0-5.23,1,11.66,11.66,0,0,0-1.67.94,9.48,9.48,0,0,0-2.47,2.42,9.08,9.08,0,0,0-1.64,4.89,9.3,9.3,0,0,0,0,1.29,12.47,12.47,0,0,0,1.2,4.39,12.27,12.27,0,0,0,3.56,4.62,9.3,9.3,0,0,0,4.81,1.93,10.73,10.73,0,0,0,9.37-4.36,9.24,9.24,0,0,0,1.63-4.93A12.2,12.2,0,0,0,342.81,306.61Zm73.1-22q-.41-4.77-5.81-4.31l-5.27.46.82,9.49,5.27-.45a5.88,5.88,0,0,0,4-1.58A4.54,4.54,0,0,0,415.91,284.61ZM438,281l-4.71,13.6,9.53-.06Zm0,0-4.71,13.6,9.53-.06Zm-22.06,3.65q-.41-4.77-5.81-4.31l-5.27.46.82,9.49,5.27-.45a5.88,5.88,0,0,0,4-1.58A4.54,4.54,0,0,0,415.91,284.61Zm-73.1,22a12,12,0,0,0-3.56-4.6,9.06,9.06,0,0,0-4.79-1.89,10.11,10.11,0,0,0-5.23,1,11.66,11.66,0,0,0-1.67.94,9.48,9.48,0,0,0-2.47,2.42,9.08,9.08,0,0,0-1.64,4.89,9.3,9.3,0,0,0,0,1.29,12.47,12.47,0,0,0,1.2,4.39,12.27,12.27,0,0,0,3.56,4.62,9.3,9.3,0,0,0,4.81,1.93,10.73,10.73,0,0,0,9.37-4.36,9.24,9.24,0,0,0,1.63-4.93A12.2,12.2,0,0,0,342.81,306.61Zm0,0a12,12,0,0,0-3.56-4.6,9.06,9.06,0,0,0-4.79-1.89,10.11,10.11,0,0,0-5.23,1,11.66,11.66,0,0,0-1.67.94,9.48,9.48,0,0,0-2.47,2.42,9.08,9.08,0,0,0-1.64,4.89,9.3,9.3,0,0,0,0,1.29,12.47,12.47,0,0,0,1.2,4.39,12.27,12.27,0,0,0,3.56,4.62,9.3,9.3,0,0,0,4.81,1.93,10.73,10.73,0,0,0,9.37-4.36,9.24,9.24,0,0,0,1.63-4.93A12.2,12.2,0,0,0,342.81,306.61Zm0,0a12,12,0,0,0-3.56-4.6,9.06,9.06,0,0,0-4.79-1.89,10.11,10.11,0,0,0-5.23,1,11.66,11.66,0,0,0-1.67.94,9.48,9.48,0,0,0-2.47,2.42,9.08,9.08,0,0,0-1.64,4.89,9.3,9.3,0,0,0,0,1.29,12.47,12.47,0,0,0,1.2,4.39,12.27,12.27,0,0,0,3.56,4.62,9.3,9.3,0,0,0,4.81,1.93,10.73,10.73,0,0,0,9.37-4.36,9.24,9.24,0,0,0,1.63-4.93A12.2,12.2,0,0,0,342.81,306.61Z"/><path class="cls-1" d="M640.71,326.45a1.52,1.52,0,0,0-1.6-.84C639.55,325.93,640,327.07,640.71,326.45Z"/><path class="cls-1" d="M614.62,166.53q-6.69-2.07-10.45-.65t-6.88,6.89q-10.38,18.53-20,40.63a77.87,77.87,0,0,1-10.9,7.78,18.1,18.1,0,0,1-13,1.9,8.7,8.7,0,0,1-6.26-4.93q-1.92-4-1.34-12.17a317.76,317.76,0,0,0,43.12-53.6q17.71-28,22.78-51,3.54-16,.85-25.68T601.79,64.32q-14.17-3.12-29.22,16.29t-26.94,48.45q-11.91,29-17.11,52.64a144.57,144.57,0,0,0-2.61,15.75,91.81,91.81,0,0,1-12.76,12,18.09,18.09,0,0,1-12.72,3.37,8.66,8.66,0,0,1-6.78-4.18q-2.37-3.72-2.73-11.93a318.51,318.51,0,0,0,36.72-58.19Q542,108.7,544.44,85.24q1.68-16.36-2.1-25.62T530.41,49.54Q516,48.05,503.24,69.06T482,120.27q-8.5,30.2-11,54.25a147.32,147.32,0,0,0-.8,15.12A60.08,60.08,0,0,1,455.69,204q-9.58,6.61-17.27,6.91-12,.45-16.57-8.5,19.93-6.49,28-16.63A34.72,34.72,0,0,0,457.42,162q-.44-11.68-6.68-18.29t-16.14-6.23A31.34,31.34,0,0,0,415,145.14a45.85,45.85,0,0,0-13,19.23A65.09,65.09,0,0,0,398,190a68.37,68.37,0,0,0,.75,7.84q-5.2,9.48-10.24,13.11c-.25-2.38-.51-4.21-.77-5.51a29.22,29.22,0,0,0-5.32-12,129.36,129.36,0,0,0-10.95-12.22,75.81,75.81,0,0,1-7.22-7.63,14.61,14.61,0,0,1-3.06-6q-1-4.86.6-12.46a31.73,31.73,0,0,0,.81-5.42,16.82,16.82,0,0,0-.08-3.83,3.35,3.35,0,0,0-2.48-2.73q-2-.6-6.72.36-10,2-11.49,11.24-1.63,10.84-3.56,21.05t-3.63,16.41c-.45,1.44-1,3-1.54,4.63a6.53,6.53,0,0,0-2.23,3.58c-1,3.65-2,6.87-2.89,9.71-.87,2.13-1.81,4.34-2.81,6.66l-1.54,3.55a13.31,13.31,0,0,0-.89,2.77,8.39,8.39,0,0,1-3.84,3.67,3.93,3.93,0,0,1-3.74-.52,8,8,0,0,1-2.85-4q-3.08-8.37-7.26-31.11-3-15.58-4.44-19.48-2.38-6.51-10.25-3.62c-2.46.9-13.84-2.3-16.19-1.44q-11.06,4.08-17.95,15.79a61.14,61.14,0,0,0-7.93,27.2,72.92,72.92,0,0,0,4.44,30.36q5,13.58,14,19.76t19,2.53q12.67-4.67,15.26-23.35a27.65,27.65,0,0,0,10.87,9,14.7,14.7,0,0,0,11.24.62q6.89-2.53,11.88-11.76a93.42,93.42,0,0,0,7.83-20.28c.49-1.1,1-2.21,1.45-3.33A135,135,0,0,0,350.59,192q3,2.64,6.5,6.26a50.34,50.34,0,0,1,6.2,7.74,29,29,0,0,1,3.87,9.12c-1,.08-2.56.15-4.58.22a32.58,32.58,0,0,0-5.21.56q-6.19,1.26-8.62,5.6a13.18,13.18,0,0,0-1.4,9.38,14.82,14.82,0,0,0,6.74,9.55q5.55,3.72,14.26,2a22.37,22.37,0,0,0,14.56-9.84q11.14-2.69,17.87-8.6a35.33,35.33,0,0,0,5.63-6.53,34.18,34.18,0,0,0,2.62,3.13q10.34,10.9,28.27,10.23a44.23,44.23,0,0,0,24.38-8.47A74.83,74.83,0,0,0,473,212.56c.33,1.2.68,2.37,1.06,3.5q5.61,16.51,20.57,18.05a30.93,30.93,0,0,0,20.15-4.71,72.23,72.23,0,0,0,11.46-9c.16,1,.34,2,.54,2.92q3.69,17,18.37,20.28a31,31,0,0,0,20.56-2.38c.25-.11.49-.25.74-.37a10.48,10.48,0,0,0,.2,5.82c.8,2.05,2.93,3.61,6.42,4.69q5.86,1.83,9.41.23t5.74-7.56q10-27,29.91-65.2c.76-1.7,1.24-2.86,1.44-3.5Q621.64,168.71,614.62,166.53ZM564.4,134.81q8.91-23,17.29-38T593.9,82.67q4.68,1,1.44,15.74-4.14,18.77-16.16,40a274.28,274.28,0,0,1-28.85,41.23A339.65,339.65,0,0,1,564.4,134.81Zm-63.09-11q6.22-23.86,12.84-39.72t10.51-15.45q4.76.48,3.23,15.47-2,19.13-11.48,41.55a274.92,274.92,0,0,1-23.95,44.25A341.6,341.6,0,0,1,501.31,123.84ZM289.46,234q-1.43,6-5,7.31a6.85,6.85,0,0,1-6.56-.75q-3-2.06-5.15-7.82a61.17,61.17,0,0,1-3.88-20.95,42.45,42.45,0,0,1,3.55-18.31q3.6-7.76,10.27-10.43l6.66,36.4Q290.89,228,289.46,234Zm129.06-47.36q-.47-12.08,3.57-20.76T432.44,157a5.86,5.86,0,0,1,4.95,2.09,9.47,9.47,0,0,1,2,6,17.3,17.3,0,0,1-5.31,13.09q-5.6,5.77-15.57,8.92Z"/><path class="cls-1" d="M640.15,132.13a14.67,14.67,0,0,0-8.74-6.45,16,16,0,0,0-12.56,1,15.66,15.66,0,0,0-7.92,9.68q-2.05,6.61.22,11.38t9.14,6.88q7,2.18,12.64-.95t8-10.71Q642.85,136.7,640.15,132.13Z"/><rect class="cls-1" x="638.05" y="399.7" width="68.69" height="10.55" transform="translate(-110.08 342.95) rotate(-26.53)"/><path class="cls-1" d="M637.18,412.32l61.45-30.67c-7.34-14-13.74-19.72-22.61-22.94l-.57,4.44-4.29-2-.88,7.88-4.72-3.33v6.56l-6.48-5.08,1.49,6.92-6.74-4.3,2.36,6-7.26-3.59,3.36,5.55-9-2.75,1.33,7.12-9-3.28,3.87,6-11.22-2.31,2.35,6-9.35-2.5,4.06,5-7.39-3.32,4.55,3.77-7.92-2.09C621.11,394.56,629.58,399.33,637.18,412.32Z"/><path class="cls-1" d="M724.18,478.21,706,441.74a16.85,16.85,0,0,1,1.4-17.17,22.77,22.77,0,0,0,1.72-23.24l-2-3.94-61.45,30.67,2,3.94a22.82,22.82,0,0,0,19.62,12.61,16.8,16.8,0,0,1,14.56,9.19L700,490.28a13.5,13.5,0,0,0,24.16-12.07Zm-9.38,11.45a6.16,6.16,0,1,1,2.76-8.26A6.15,6.15,0,0,1,714.8,489.66Z"/><path class="cls-1" d="M290.62,356.84h7.71a0,0,0,0,1,0,0v88.31a3.86,3.86,0,0,1-3.86,3.86h0a3.86,3.86,0,0,1-3.86-3.86V356.84A0,0,0,0,1,290.62,356.84Z"/><path class="cls-1" d="M184.72,368.41h7.71a1.11,1.11,0,0,1,1.11,1.11v44.3a5,5,0,0,1-5,5h0a5,5,0,0,1-5-5v-44.3A1.11,1.11,0,0,1,184.72,368.41Z"/><path class="cls-1" d="M200.9,352.54h0a2.83,2.83,0,0,1,2.83,2.83v47.56a0,0,0,0,1,0,0h-5.66a0,0,0,0,1,0,0V355.36A2.83,2.83,0,0,1,200.9,352.54Z" transform="translate(401.8 755.46) rotate(-180)"/><path class="cls-1" d="M471.39,306h7.71a0,0,0,0,1,0,0V394.3a3.86,3.86,0,0,1-3.86,3.86h0a3.86,3.86,0,0,1-3.86-3.86V306a0,0,0,0,1,0,0Z"/><path class="cls-1" d="M457.66,324.81h7.71a1.71,1.71,0,0,1,1.71,1.71V411.4a5.57,5.57,0,0,1-5.57,5.57h0a5.57,5.57,0,0,1-5.57-5.57V326.52A1.71,1.71,0,0,1,457.66,324.81Z"/></g></svg>