<svg height="511pt" viewBox="0 0 511.999 511" width="511pt" xmlns="http://www.w3.org/2000/svg"><path d="M504.754 305.828c-5.824-3.594-13.344-2.933-18.387 1.676-36.726 33.312-84.234 51.668-133.746 51.668-109.894 0-199.305-89.41-199.305-199.305 0-49.515 18.356-97.02 51.668-133.746a15.337 15.337 0 001.676-18.387c-3.61-5.808-10.676-8.504-17.203-6.66C77.898 32.664 0 135.79 0 251.852 0 395.57 116.918 512.484 260.633 512.484c116.062 0 219.191-77.898 250.781-189.453a15.313 15.313 0 00-6.66-17.203zm0 0"/><path d="M253.883 202.82l36.32 18.145 18.145 36.324a15.32 15.32 0 0013.715 8.473c5.812 0 11.109-3.278 13.714-8.473l18.164-36.324 36.305-18.145a15.338 15.338 0 000-27.43l-36.305-18.148-18.164-36.32c-5.21-10.39-22.246-10.39-27.43 0l-18.144 36.32-36.32 18.149a15.324 15.324 0 00-8.477 13.714 15.324 15.324 0 008.477 13.715zm0 0M413.945 83.207h15.332v15.332c0 8.473 6.86 15.332 15.332 15.332s15.332-6.86 15.332-15.332V83.207h15.332c8.473 0 15.332-6.855 15.332-15.332 0-8.473-6.859-15.328-15.332-15.328h-15.332V37.215c0-8.477-6.859-15.332-15.332-15.332s-15.332 6.855-15.332 15.332v15.332h-15.332c-8.472 0-15.328 6.855-15.328 15.328 0 8.477 6.856 15.332 15.328 15.332zm0 0"/></svg>