<?xml version="1.0"?>
<svg xmlns="http://www.w3.org/2000/svg" xmlns:xlink="http://www.w3.org/1999/xlink" xmlns:svgjs="http://svgjs.com/svgjs" version="1.1" width="512" height="512" x="0" y="0" viewBox="0 0 511.99928 511" style="enable-background:new 0 0 512 512" xml:space="preserve"><g><path xmlns="http://www.w3.org/2000/svg" d="m504.753906 305.828125c-5.824218-3.59375-13.34375-2.933594-18.386718 1.675781-36.726563 33.3125-84.234376 51.667969-133.746094 51.667969-109.894532 0-199.304688-89.410156-199.304688-199.304687 0-49.515626 18.355469-97.019532 51.667969-133.746094 4.59375-5.0625 5.285156-12.5625 1.675781-18.386719-3.609375-5.808594-10.675781-8.503906-17.203125-6.660156-111.558593 31.589843-189.457031 134.714843-189.457031 250.777343 0 143.71875 116.917969 260.632813 260.632812 260.632813 116.0625 0 219.191407-77.898437 250.78125-189.453125 1.871094-6.589844-.851562-13.597656-6.660156-17.203125zm0 0" fill="#ffffff" data-original="#000000" style=""/><path xmlns="http://www.w3.org/2000/svg" d="m253.882812 202.820312 36.320313 18.144532 18.144531 36.324218c2.589844 5.195313 7.90625 8.472657 13.714844 8.472657 5.8125 0 11.109375-3.277344 13.714844-8.472657l18.164062-36.324218 36.304688-18.144532c5.195312-2.605468 8.472656-7.90625 8.472656-13.714843 0-5.808594-3.277344-11.109375-8.472656-13.714844l-36.304688-18.148437-18.164062-36.320313c-5.210938-10.390625-22.246094-10.390625-27.429688 0l-18.144531 36.320313-36.320313 18.148437c-5.195312 2.589844-8.476562 7.90625-8.476562 13.714844 0 5.808593 3.28125 11.125 8.476562 13.714843zm0 0" fill="#ffffff" data-original="#000000" style=""/><path xmlns="http://www.w3.org/2000/svg" d="m413.945312 83.207031h15.332032v15.332031c0 8.472657 6.859375 15.332032 15.332031 15.332032s15.332031-6.859375 15.332031-15.332032v-15.332031h15.332032c8.472656 0 15.332031-6.855469 15.332031-15.332031 0-8.472656-6.859375-15.328125-15.332031-15.328125h-15.332032v-15.332031c0-8.476563-6.859375-15.332032-15.332031-15.332032s-15.332031 6.855469-15.332031 15.332032v15.332031h-15.332032c-8.472656 0-15.328124 6.855469-15.328124 15.328125 0 8.476562 6.855468 15.332031 15.328124 15.332031zm0 0" fill="#ffffff" data-original="#000000" style=""/></g></svg>
