<?xml version="1.0"?>
<svg xmlns="http://www.w3.org/2000/svg" xmlns:xlink="http://www.w3.org/1999/xlink" xmlns:svgjs="http://svgjs.com/svgjs" version="1.1" width="512" height="512" x="0" y="0" viewBox="0 0 60 60" style="enable-background:new 0 0 512 512" xml:space="preserve" class=""><g><g xmlns="http://www.w3.org/2000/svg" id="Page-1" fill="none" fill-rule="evenodd"><g id="024---Bathroom" fill="rgb(0,0,0)" fill-rule="nonzero"><path id="Shape" d="m25 26c-.5522847 0-1 .4477153-1 1v6c0 .5522847.4477153 1 1 1s1-.4477153 1-1v-6c0-.5522847-.4477153-1-1-1z" fill="#ffffff" data-original="#000000" style="" class=""/><path id="Shape" d="m5 16c.26519481-.0000566.51950727-.1054506.707-.293l1-1c.37897221-.3923789.37355237-1.0160848-.01218142-1.4018186-.3857338-.3857338-1.00943969-.3911536-1.40181858-.0121814l-1 1c-.28590792.2859943-.37142191.7160366-.21667798 1.0896546.15474393.3736179.51928208.6172591.92367798.6173454z" fill="#ffffff" data-original="#000000" style="" class=""/><path id="Shape" d="m11.293 13.293-7 7c-.25995658.2510745-.3642126.6228779-.27269716.9725073.09151544.3496295.3645604.6226744.71418984.7141899.34962943.0915154.72143285-.0127406.97250732-.2726972l7-7c.3789722-.3923789.3735524-1.0160848-.0121814-1.4018186s-1.0094397-.3911536-1.4018186-.0121814z" fill="#ffffff" data-original="#000000" style="" class=""/><path id="Shape" d="m58 30h-2v-13c-.0000001-6.6274169-5.3725831-11.99999975-12-11.99999975s-11.9999999 5.37258285-12 11.99999975v13h-2v-27c0-1.65685425-1.3431458-3-3-3h-24c-1.65685425 0-3 1.34314575-3 3v55c0 1.1045695.8954305 2 2 2h56c1.1045695 0 2-.8954305 2-2v-26c0-1.1045695-.8954305-2-2-2zm-28 24v-16h13v16zm15-16h13v16h-13zm-11-21c0-5.5228475 4.4771525-10 10-10s10 4.4771525 10 10v13h-5v-1c0-.5522847-.4477153-1-1-1s-1 .4477153-1 1v1h-2v-6c0-.5522847.4477153-1 1-1s1 .4477153 1 1v1c0 .5522847.4477153 1 1 1s1-.4477153 1-1v-1c0-1.6568542-1.3431458-3-3-3s-3 1.3431458-3 3v6h-2v-1c0-.5522847-.4477153-1-1-1s-1 .4477153-1 1v1h-5zm-1 15h25v4h-28v-4zm-31-29c0-.55228475.44771525-1 1-1h11v3h-2c-1.6568542 0-3 1.34314575-3 3v2c0 .5522847.44771525 1 1 1h10c.5522847 0 1-.4477153 1-1v-2c0-1.65685425-1.3431458-3-3-3h-2v-3h11c.5522847 0 1 .44771525 1 1v51h-26zm16 4c.5522847 0 1 .44771525 1 1v1h-8v-1c0-.55228475.4477153-1 1-1zm-16 49h26v2h-26zm28 2v-2h28v2z" fill="#ffffff" data-original="#000000" style="" class=""/><path id="Shape" d="m41 44c-.5522847 0-1 .4477153-1 1v1c0 .5522847.4477153 1 1 1s1-.4477153 1-1v-1c0-.5522847-.4477153-1-1-1z" fill="#ffffff" data-original="#000000" style="" class=""/><path id="Shape" d="m47 44c-.5522847 0-1 .4477153-1 1v1c0 .5522847.4477153 1 1 1s1-.4477153 1-1v-1c0-.5522847-.4477153-1-1-1z" fill="#ffffff" data-original="#000000" style="" class=""/><path id="Shape" d="m39 14c.2651948-.0000566.5195073-.1054506.707-.293l1-1c.3789722-.3923789.3735524-1.0160848-.0121814-1.4018186s-1.0094397-.3911536-1.4018186-.0121814l-1 1c-.2859079.2859943-.3714219.7160366-.216678 1.0896546.1547439.3736179.5192821.6172591.923678.6173454z" fill="#ffffff" data-original="#000000" style="" class=""/><path id="Shape" d="m39 19c.2651948-.0000566.5195073-.1054506.707-.293l6-6c.3789722-.3923789.3735524-1.0160848-.0121814-1.4018186s-1.0094397-.3911536-1.4018186-.0121814l-6 6c-.2859079.2859943-.3714219.7160366-.216678 1.0896546.1547439.3736179.5192821.6172591.923678.6173454z" fill="#ffffff" data-original="#000000" style="" class=""/></g></g></g></svg>
