<?xml version="1.0"?>
<svg xmlns="http://www.w3.org/2000/svg" xmlns:xlink="http://www.w3.org/1999/xlink" xmlns:svgjs="http://svgjs.com/svgjs" version="1.1" width="512" height="512" x="0" y="0" viewBox="0 0 128 128" style="enable-background:new 0 0 512 512" xml:space="preserve" class=""><g><path xmlns="http://www.w3.org/2000/svg" d="m29.537 84.308v19.5a1.75 1.75 0 0 0 1.75 1.75h34a1.75 1.75 0 0 0 1.75-1.75v-19.5a1.749 1.749 0 0 0 -1.75-1.75h-34a1.749 1.749 0 0 0 -1.75 1.75zm3.5 1.75h30.5v16h-30.5z" fill="#ffffff" data-original="#000000" style="" class=""/><path xmlns="http://www.w3.org/2000/svg" d="m36.287 38.417a1.75 1.75 0 0 0 0 3.5h24a1.75 1.75 0 1 0 0-3.5z" fill="#ffffff" data-original="#000000" style="" class=""/><path xmlns="http://www.w3.org/2000/svg" d="m36.287 49.75h24a1.75 1.75 0 1 0 0-3.5h-24a1.75 1.75 0 0 0 0 3.5z" fill="#ffffff" data-original="#000000" style="" class=""/><path xmlns="http://www.w3.org/2000/svg" d="m36.287 57.583h24a1.75 1.75 0 1 0 0-3.5h-24a1.75 1.75 0 0 0 0 3.5z" fill="#ffffff" data-original="#000000" style="" class=""/><path xmlns="http://www.w3.org/2000/svg" d="m122.493 24.066a1.753 1.753 0 0 0 -1.617-.194l-8.547 3.26h-3.835c-2.316-5.787-8.213-14.674-22.916-17.471a53.294 53.294 0 0 0 -25.229 1.185v-4.346a1.751 1.751 0 0 0 -1.749-1.75h-20.626a1.751 1.751 0 0 0 -1.75 1.75v15.94h-2.8a13.733 13.733 0 0 0 -13.732 13.051l-2.748 53.633a7.739 7.739 0 0 0 -12.194 6.339v20.037a7.744 7.744 0 0 0 13.188 5.514 7.746 7.746 0 0 0 5.412 2.236h49.87a7.748 7.748 0 0 0 5.414-2.238 7.744 7.744 0 0 0 13.189-5.512v-20.037a7.739 7.739 0 0 0 -12.195-6.338l-2.74-53.635a13.753 13.753 0 0 0 -13.738-13.05h-2.8v-7.889a49.948 49.948 0 0 1 24.573-1.451c12.018 2.287 17.379 9.028 19.748 14.033h-1.019a1.751 1.751 0 0 0 -1.75 1.75v20.117a1.746 1.746 0 0 0 1.5 1.725v54.8a1.745 1.745 0 0 0 -1.5 1.652l-.6 14.247a1.75 1.75 0 0 0 1.748 1.823h10.2a1.75 1.75 0 0 0 1.75-1.82l-.6-14.247a1.745 1.745 0 0 0 -1.5-1.652v-54.8a1.744 1.744 0 0 0 1.5-1.728v-13.347l7.343-1.038a1.75 1.75 0 0 0 1.5-1.733v-7.375a1.751 1.751 0 0 0 -.75-1.441zm-82.769-15.816h17.125v3.855c-5.866 2.445-10.03 6.059-11.926 10.335h-5.2zm-27.224 111.5a4.255 4.255 0 0 1 -4.25-4.25v-20.037a4.25 4.25 0 0 1 8.5 0v20.037a4.255 4.255 0 0 1 -4.25 4.25zm71.573-28.537a4.255 4.255 0 0 1 4.25 4.25v20.037a4.25 4.25 0 0 1 -8.5 0v-20.037a4.255 4.255 0 0 1 4.25-4.25zm-10.681-55.544 3.008 58.781a7.866 7.866 0 0 0 -.074 1.013v20.037a7.727 7.727 0 0 0 .389 2.411 4.249 4.249 0 0 1 -3.492 1.839h-49.873a4.251 4.251 0 0 1 -3.489-1.838 7.733 7.733 0 0 0 .389-2.412v-20.037a7.765 7.765 0 0 0 -.075-1.017l3.012-58.779a10.237 10.237 0 0 1 10.233-9.727h4.53.024 20.626.024 4.526a10.255 10.255 0 0 1 10.242 9.729zm-24.518-13.229a18.571 18.571 0 0 1 7.975-6.505v6.505zm58.026 83.06v-54.75h2.5v54.75zm4-71.371v13.121h-5.5v-16.618h5.5zm-6.021 85.618.45-10.747h5.644l.45 10.747zm14.871-88.385-5.348.756v-2.03l5.348-2.04z" fill="#ffffff" data-original="#000000" style="" class=""/></g></svg>
