<?xml version="1.0"?>
<svg xmlns="http://www.w3.org/2000/svg" xmlns:xlink="http://www.w3.org/1999/xlink" xmlns:svgjs="http://svgjs.com/svgjs" version="1.1" width="512" height="512" x="0" y="0" viewBox="0 0 64 64" style="enable-background:new 0 0 512 512" xml:space="preserve" class=""><g><g xmlns="http://www.w3.org/2000/svg"><path d="m48 33c-2.528 0-4.908.635-7 1.744v-5.487c2.092 1.108 4.472 1.743 7 1.743 8.271 0 15-6.729 15-15s-6.729-15-15-15c-5.863 0-10.937 3.389-13.403 8.303l-10.199-7.516c-1.38-1.016-3.416-1.017-4.796.001l-18.602 13.707v5.505h2v19.548c-1.265 2.199-2 4.739-2 7.452 0 8.271 6.729 15 15 15s15-6.729 15-15c0-1.027-.105-2.03-.302-3h2.605c-.198.97-.303 1.973-.303 3 0 8.271 6.729 15 15 15s15-6.729 15-15-6.729-15-15-15zm0-30c7.168 0 13 5.832 13 13s-5.832 13-13 13-13-5.832-13-13 5.832-13 13-13zm-14.949 14c.045.678.119 1.349.252 2h-10.303v-2zm-5.509-10.412-2.542 3.05v3.362h2v-1.382l2.553 1.276.895-1.789-2.87-1.435 1.578-1.894 4.647 3.424c-.409 1.206-.663 2.479-.751 3.799h-10.052v-11.708c.069.038.148.059.212.106zm-6.754-3.19c.064-.047.142-.068.212-.106v11.708h-15.958l7.284-5.367.962 2.244 5.516 1.104.393-1.961-4.484-.896-.733-1.709zm-17.788 13.602h18v2h-18zm2 4h16v12.875c-.65-.231-1.313-.433-2-.573v-10.302h-12v13.028c-.72.543-1.389 1.147-2 1.808zm12 12.051c-.332-.022-.662-.051-1-.051-2.528 0-4.908.635-7 1.744v-9.744h8zm-1 27.949c-7.168 0-13-5.832-13-13s5.832-13 13-13 13 5.832 13 13-5.832 13-13 13zm14.125-18c-1.264-3.56-3.825-6.507-7.125-8.256v-13.744h10.875c.515 1.449 1.244 2.794 2.153 4h-11.028v10h12v-8.836c.611.661 1.28 1.265 2 1.808v8.057c-2.331 1.756-4.13 4.171-5.125 6.971zm4.875-16v6h-8v-6zm13 34c-7.168 0-13-5.832-13-13s5.832-13 13-13 13 5.832 13 13-5.832 13-13 13z" fill="#60a5a5" data-original="#000000" style="" class=""/><path d="m22 39h-8c-1.302 0-2.402.839-2.816 2h-4.184v5.781l8 2v2.403c-1.161.414-2 1.514-2 2.816v2c0 1.654 1.346 3 3 3s3-1.346 3-3v-2c0-1.302-.839-2.402-2-2.816v-3.966l-8-2v-2.218h2.184c.414 1.161 1.514 2 2.816 2h8c1.654 0 3-1.346 3-3s-1.346-3-3-3zm-5 17c0 .552-.449 1-1 1s-1-.448-1-1v-2c0-.552.449-1 1-1s1 .448 1 1zm5-13h-8c-.551 0-1-.448-1-1s.449-1 1-1h8c.551 0 1 .448 1 1s-.449 1-1 1z" fill="#60a5a5" data-original="#000000" style="" class=""/><path d="m44 19c.518 0 1.036-.07 1.547-.211l5.332 5.332c.566.567 1.32.879 2.121.879s1.555-.313 2.121-.879c.567-.566.879-1.32.879-2.121s-.312-1.555-.879-2.121l-5.332-5.332c.14-.511.211-1.028.211-1.547 0-3.309-2.691-6-6-6h-.414l-2 2 2.378 2.378c-.153.801-.786 1.433-1.585 1.586l-2.379-2.378-2 2v.414c0 3.309 2.691 6 6 6zm-2.414-4h.414c2.206 0 4-1.794 4-4v-.414l-1.562-1.563c2 .219 3.562 1.919 3.562 3.977 0 .483-.096.973-.284 1.453l-.24.609 6.231 6.23c.191.192.293.437.293.708s-.102.516-.293.707c-.384.383-1.03.383-1.414 0l-6.23-6.23-.609.239c-.482.188-.971.284-1.454.284-2.058 0-3.757-1.562-3.976-3.562z" fill="#60a5a5" data-original="#000000" style="" class=""/><path d="m44.987 41.929-1.768.705 4.367 4.366-2.31 2.311c-1.111-.501-2.51-.319-3.396.568l-2 2c-.568.566-.88 1.32-.88 2.121s.312 1.555.879 2.121c.566.567 1.32.879 2.121.879s1.555-.313 2.121-.879l2-2c.567-.566.879-1.32.879-2.121 0-.454-.11-.887-.3-1.285l2.3-2.3 4.365 4.365.707-1.766c1.279-3.201 1.928-6.57 1.928-10.014v-1h-1c-3.447 0-6.816.649-10.013 1.929zm-.28 10.778-2 2c-.384.383-1.03.383-1.414 0-.191-.191-.293-.436-.293-.707s.102-.516.293-.707l2-2c.192-.191.436-.293.707-.293s.515.102.707.293c.191.191.293.436.293.707s-.102.516-.293.707zm7.908-3.507-5.815-5.815c2.318-.808 4.725-1.265 7.18-1.364-.1 2.454-.557 4.861-1.365 7.179z" fill="#60a5a5" data-original="#000000" style="" class=""/></g></g></svg>
