<?xml version="1.0"?>
<svg xmlns="http://www.w3.org/2000/svg" xmlns:xlink="http://www.w3.org/1999/xlink" xmlns:svgjs="http://svgjs.com/svgjs" version="1.1" width="512" height="512" x="0" y="0" viewBox="0 0 512.00045 512" style="enable-background:new 0 0 512 512" xml:space="preserve" class=""><g><path xmlns="http://www.w3.org/2000/svg" d="m212.882812 111.867188h-75.871093c-6.894531 0-12.5 5.605468-12.5 12.5v123.933593c0 6.890625 5.605469 12.5 12.5 12.5h75.871093c6.894532 0 12.5-5.609375 12.5-12.5v-123.933593c0-6.894532-5.605468-12.5-12.5-12.5zm-45.4375 133.933593h-27.933593v-30.671875h27.933593zm0-45.671875h-27.933593v-27.59375h27.933593zm0-42.59375h-27.933593v-30.667968h27.933593zm42.9375 88.265625h-27.9375v-30.671875h27.9375zm0-45.671875h-27.9375v-27.59375h27.9375zm0-42.59375h-27.9375v-30.667968h27.9375zm0 0" fill="#60a5a5" data-original="#000000" style="" class=""/><path xmlns="http://www.w3.org/2000/svg" d="m313.472656 411.296875c-4.144531 0-7.5 3.359375-7.5 7.5v18.007813c0 4.140624 3.355469 7.5 7.5 7.5 4.144532 0 7.5-3.359376 7.5-7.5v-18.007813c0-4.140625-3.355468-7.5-7.5-7.5zm0 0" fill="#60a5a5" data-original="#000000" style="" class=""/><path xmlns="http://www.w3.org/2000/svg" d="m511.929688 335.554688c-.347657-2.632813-1.695313-4.980469-3.792969-6.605469l-158.894531-122.941407c-3.523438-2.722656-7.734376-4.164062-12.179688-4.164062-4.449219 0-8.660156 1.441406-12.1875 4.167969l-24.03125 18.59375v-21.539063c0-4.144531-3.355469-7.5-7.5-7.5s-7.5 3.355469-7.5 7.5v33.144532l-119.851562 92.734374c-2.085938 1.609376-3.472657 4.035157-3.800782 6.640626-.339844 2.636718.367188 5.253906 1.988282 7.367187l12.160156 15.816406c1.910156 2.472657 4.792968 3.890625 7.914062 3.890625 2.195313 0 4.363282-.738281 6.105469-2.085937l146.703125-113.507813 110.886719 85.796875v156.265625h-60.40625v-14.0625c0-4.144531-3.355469-7.5-7.5-7.5s-7.5 3.355469-7.5 7.5v14.0625h-70.972657v-114.898437h70.972657v65.585937c0 4.144532 3.355469 7.5 7.5 7.5s7.5-3.355468 7.5-7.5v-68.085937c0-6.890625-5.609375-12.5-12.5-12.5h-75.96875c-6.894531 0-12.503907 5.609375-12.503907 12.5v117.398437h-56.992187v-20.457031c0-6.894531-5.605469-12.5-12.5-12.5h-7.179687c.597656-2.984375.921874-6.066406.921874-9.222656 0-25.957031-21.121093-47.074219-47.078124-47.074219-14.089844 0-27.273438 6.464844-36.089844 16.949219-3.335938-1.054688-6.882813-1.628907-10.5625-1.628907-2.703125 0-5.359375.300782-7.941406.902344-8.167969-13.992187-23.410157-22.992187-39.886719-22.992187-1.753907 0-3.488281.109375-5.199219.308593v-251.054687l110.890625-85.804687 110.894531 85.804687v25.703125c0 4.144531 3.355469 7.5 7.5 7.5 4.140625 0 7.5-3.355469 7.5-7.5v-14.097656l20.8125 16.101562c1.738282 1.347656 3.90625 2.085938 6.101563 2.085938 3.128906 0 6.015625-1.421875 7.917969-3.898438.027343-.035156.054687-.074218.082031-.109375l11.648437-15.734375.074219-.09375c.769531-.964844 2.8125-3.523437 2.335937-7.269531-.347656-2.644531-1.699218-4.992187-3.792968-6.605469l-158.890625-122.941406c-3.523438-2.722656-7.734375-4.164062-12.183594-4.164062s-8.660156 1.441406-12.1875 4.167968l-43.625 33.753906v-9.453124c5.898437-1 10.40625-6.132813 10.40625-12.308594v-14.996094c0-6.894531-5.609375-12.5-12.5-12.5h-60.777344c-6.890625 0-12.5 5.605469-12.5 12.5v14.992188c0 6.179687 4.507813 11.308593 10.40625 12.3125v59.71875l-50.28125 38.90625c-2.09375 1.609374-3.480469 4.039062-3.8085935 6.636718-.3437495 2.640625.3593745 5.257813 1.9843745 7.375l12.160157 15.816406c1.90625 2.476563 4.789062 3.894532 7.914062 3.894532 2.195313 0 4.359375-.738282 6.109375-2.085938l20.808594-16.101562v243.859375c-11.90625 5.859375-21.074219 16.71875-24.480469 29.964843-11.308593 4.359376-19.078125 15.34375-19.078125 27.8125 0 1.375.097656 2.726563.277344 4.054688-2.378906 2.277344-3.863281 5.472656-3.863281 9.015625v22.960937c0 6.890626 5.605469 12.5 12.5 12.5h470.269531c4.144531 0 7.5-3.359374 7.5-7.5 0-4.144531-3.355469-7.5-7.5-7.5h-21.738281v-144.664062l20.816406 16.105469c1.738281 1.34375 3.90625 2.085937 6.101563 2.085937 3.128906 0 6.015624-1.421875 7.917968-3.902344.027344-.035156.054688-.070312.082032-.105468l11.652343-15.738282.078125-.097656c.765625-.960937 2.804688-3.519531 2.332032-7.261718zm-348.1875 79.320312c17.6875 0 32.078124 14.390625 32.078124 32.074219 0 3.207031-.484374 6.300781-1.363281 9.222656h-42.78125c.324219-1.90625.503907-3.867187.503907-5.867187 0-10.175782-4.355469-19.347657-11.289063-25.769532 5.929687-6.019531 14.132813-9.660156 22.851563-9.660156zm-104.972657-399.875h55.777344v9.992188h-55.777344zm45.371094 24.992188v20.871093l-34.964844 27.054688v-47.925781zm-81.085937 115.132812-6.050782-7.871094 154.9375-119.886718c.886719-.683594 1.898438-1.03125 3.011719-1.03125s2.125.347656 3.007813 1.027343l154.726562 119.722657-5.90625 7.980468-147.238281-113.925781c-2.703125-2.089844-6.476563-2.089844-9.179688 0zm191.523437 334.007812h-197.660156v-17.960937h69.085937c4.140625 0 7.5-3.355469 7.5-7.5s-3.359375-7.5-7.5-7.5h-65.480468c-.007813-.191406-.019532-.378906-.019532-.570313 0-7.074218 5.027344-13.1875 11.960938-14.53125 3.136718-.609374 5.542968-3.136718 5.996094-6.296874 2.1875-15.199219 15.429687-26.664063 30.800781-26.664063 12.765625 0 24.4375 8.011719 29.042969 19.933594.75 1.945312 2.273437 3.488281 4.210937 4.265625 1.9375.773437 4.105469.703125 5.992187-.1875 2.695313-1.273438 5.585938-1.921875 8.582032-1.921875 11.078125 0 20.089844 9.019531 20.089844 20.109375 0 2.042968-.320313 4.007812-.890626 5.863281h-14.285156c-4.144531 0-7.5 3.359375-7.5 7.5 0 4.144531 3.355469 7.5 7.5 7.5h92.574219zm274.3125-143.558593-147.238281-113.921875c-2.703125-2.09375-6.476563-2.09375-9.179688 0l-147.3125 113.980468-6.050781-7.871093 154.941406-119.882813c.886719-.6875 1.898438-1.035156 3.011719-1.035156 1.109375 0 2.125.347656 3.007812 1.03125l154.726563 119.71875zm0 0" fill="#60a5a5" data-original="#000000" style="" class=""/></g></svg>
